<?xml version="1.0" encoding="UTF-8" standalone="no"?><svg xmlns="http://www.w3.org/2000/svg" xmlns:xlink="http://www.w3.org/1999/xlink" clip-rule="evenodd" stroke-miterlimit="10" viewBox="0 0 1920 1080"><desc>SVG generated by Keynote</desc><defs></defs><g transform="matrix(1.00, 0.00, -0.00, -1.00, 0.0, 1080.0)"><path d="M 0.0 1080.0 L 1920.0 1080.0 L 1920.0 0.0 L 0.0 0.0 Z M 0.0 1080.0 " fill="#FFFFFF"></path><path d="M 138.3 677.1 L 1781.7 677.1 L 1781.7 403.1 L 138.3 403.1 Z M 138.3 677.1 " fill="#000000" fill-opacity="0.00"></path><text xml:space="preserve" font-family="AlfaSlabOne-Regular,Alfa Slab One" font-size="200.0" fill="#4DBBE9" transform="matrix(1.00, 0.00, -0.00, -1.00, 138.3, 469.7)">t</text><text xml:space="preserve" font-family="AlfaSlabOne-Regular,Alfa Slab One" font-size="200.0" fill="#4DBBE9" transform="matrix(1.00, 0.00, -0.00, -1.00, 227.7, 469.7)">h</text><text xml:space="preserve" font-family="AlfaSlabOne-Regular,Alfa Slab One" font-size="200.0" fill="#4DBBE9" transform="matrix(1.00, 0.00, -0.00, -1.00, 366.1, 469.7)">e</text><text xml:space="preserve" font-family="AlfaSlabOne-Regular,Alfa Slab One" font-size="200.0" fill="#4DBBE9" transform="matrix(1.00, 0.00, -0.00, -1.00, 483.7, 469.7)">r</text><text xml:space="preserve" font-family="AlfaSlabOne-Regular,Alfa Slab One" font-size="200.0" fill="#4DBBE9" transform="matrix(1.00, 0.00, -0.00, -1.00, 587.9, 469.7)">e</text><text xml:space="preserve" font-family="AlfaSlabOne-Regular,Alfa Slab One" font-size="200.0" fill="#4DBBE9" transform="matrix(1.00, 0.00, -0.00, -1.00, 705.5, 469.7)"> </text><text xml:space="preserve" font-family="AlfaSlabOne-Regular,Alfa Slab One" font-size="200.0" fill="#4DBBE9" transform="matrix(1.00, 0.00, -0.00, -1.00, 765.5, 469.7)">a</text><text xml:space="preserve" font-family="AlfaSlabOne-Regular,Alfa Slab One" font-size="200.0" fill="#4DBBE9" transform="matrix(1.00, 0.00, -0.00, -1.00, 895.9, 469.7)">r</text><text xml:space="preserve" font-family="AlfaSlabOne-Regular,Alfa Slab One" font-size="200.0" fill="#4DBBE9" transform="matrix(1.00, 0.00, -0.00, -1.00, 1000.1, 469.7)">e</text><text xml:space="preserve" font-family="AlfaSlabOne-Regular,Alfa Slab One" font-size="200.0" fill="#4DBBE9" transform="matrix(1.00, 0.00, -0.00, -1.00, 1117.7, 469.7)"> </text><text xml:space="preserve" font-family="AlfaSlabOne-Regular,Alfa Slab One" font-size="200.0" fill="#4DBBE9" transform="matrix(1.00, 0.00, -0.00, -1.00, 1177.7, 469.7)">a</text><text xml:space="preserve" font-family="AlfaSlabOne-Regular,Alfa Slab One" font-size="200.0" fill="#4DBBE9" transform="matrix(1.00, 0.00, -0.00, -1.00, 1308.1, 469.7)"> </text><text xml:space="preserve" font-family="AlfaSlabOne-Regular,Alfa Slab One" font-size="200.0" fill="#4DBBE9" transform="matrix(1.00, 0.00, -0.00, -1.00, 1368.1, 469.7)">t</text><text xml:space="preserve" font-family="AlfaSlabOne-Regular,Alfa Slab One" font-size="200.0" fill="#4DBBE9" transform="matrix(1.00, 0.00, -0.00, -1.00, 1453.5, 469.7)">o</text><text xml:space="preserve" font-family="AlfaSlabOne-Regular,Alfa Slab One" font-size="200.0" fill="#4DBBE9" transform="matrix(1.00, 0.00, -0.00, -1.00, 1575.5, 469.7)">n</text><text xml:space="preserve" font-family="AlfaSlabOne-Regular,Alfa Slab One" font-size="200.0" fill="#4DBBE9" transform="matrix(1.00, 0.00, -0.00, -1.00, 1713.1, 469.7)">!</text></g></svg>