<?xml version="1.0" encoding="UTF-8" standalone="no"?><svg xmlns="http://www.w3.org/2000/svg" xmlns:xlink="http://www.w3.org/1999/xlink" clip-rule="evenodd" stroke-miterlimit="10" viewBox="0 0 1920 1080"><desc>SVG generated by Keynote</desc><defs></defs><g transform="matrix(1.00, 0.00, -0.00, -1.00, 0.0, 1080.0)"><path d="M 0.0 1080.0 L 1920.0 1080.0 L 1920.0 0.0 L 0.0 0.0 Z M 0.0 1080.0 " fill="#1B140C"></path><path d="M 404.4 773.1 L 1575.6 773.1 L 1575.6 499.1 L 404.4 499.1 Z M 404.4 773.1 " fill="#000000" fill-opacity="0.00"></path><path d="M 505.8 581.3 L 1414.2 581.3 L 1414.2 307.3 L 505.8 307.3 Z M 505.8 581.3 " fill="#000000" fill-opacity="0.00"></path><text xml:space="preserve" font-family="AlfaSlabOne-Regular,Alfa Slab One" font-size="200.0" fill="#4DBBE9" transform="matrix(1.00, 0.00, -0.00, -1.00, 404.4, 565.7)">s</text><text xml:space="preserve" font-family="AlfaSlabOne-Regular,Alfa Slab One" font-size="200.0" fill="#4DBBE9" transform="matrix(1.00, 0.00, -0.00, -1.00, 511.2, 565.7)">t</text><text xml:space="preserve" font-family="AlfaSlabOne-Regular,Alfa Slab One" font-size="200.0" fill="#4DBBE9" transform="matrix(1.00, 0.00, -0.00, -1.00, 600.6, 565.7)">i</text><text xml:space="preserve" font-family="AlfaSlabOne-Regular,Alfa Slab One" font-size="200.0" fill="#4DBBE9" transform="matrix(1.00, 0.00, -0.00, -1.00, 667.8, 565.7)">l</text><text xml:space="preserve" font-family="AlfaSlabOne-Regular,Alfa Slab One" font-size="200.0" fill="#4DBBE9" transform="matrix(1.00, 0.00, -0.00, -1.00, 737.0, 565.7)">l</text><text xml:space="preserve" font-family="AlfaSlabOne-Regular,Alfa Slab One" font-size="200.0" fill="#4DBBE9" transform="matrix(1.00, 0.00, -0.00, -1.00, 806.2, 565.7)"> </text><text xml:space="preserve" font-family="AlfaSlabOne-Regular,Alfa Slab One" font-size="200.0" fill="#4DBBE9" transform="matrix(1.00, 0.00, -0.00, -1.00, 866.2, 565.7)">l</text><text xml:space="preserve" font-family="AlfaSlabOne-Regular,Alfa Slab One" font-size="200.0" fill="#4DBBE9" transform="matrix(1.00, 0.00, -0.00, -1.00, 935.4, 565.7)">o</text><text xml:space="preserve" font-family="AlfaSlabOne-Regular,Alfa Slab One" font-size="200.0" fill="#4DBBE9" transform="matrix(1.00, 0.00, -0.00, -1.00, 1059.4, 565.7)">t</text><text xml:space="preserve" font-family="AlfaSlabOne-Regular,Alfa Slab One" font-size="200.0" fill="#4DBBE9" transform="matrix(1.00, 0.00, -0.00, -1.00, 1148.8, 565.7)">s</text><text xml:space="preserve" font-family="AlfaSlabOne-Regular,Alfa Slab One" font-size="200.0" fill="#4DBBE9" transform="matrix(1.00, 0.00, -0.00, -1.00, 1255.6, 565.7)"> </text><text xml:space="preserve" font-family="AlfaSlabOne-Regular,Alfa Slab One" font-size="200.0" fill="#4DBBE9" transform="matrix(1.00, 0.00, -0.00, -1.00, 1315.6, 565.7)">o</text><text xml:space="preserve" font-family="AlfaSlabOne-Regular,Alfa Slab One" font-size="200.0" fill="#4DBBE9" transform="matrix(1.00, 0.00, -0.00, -1.00, 1439.6, 565.7)">f</text><text xml:space="preserve" font-family="AlfaSlabOne-Regular,Alfa Slab One" font-size="200.0" fill="#4DBBE9" transform="matrix(1.00, 0.00, -0.00, -1.00, 1515.6, 565.7)"> </text><text xml:space="preserve" font-family="AlfaSlabOne-Regular,Alfa Slab One" font-size="200.0" fill="#4DBBE9" transform="matrix(1.00, 0.00, -0.00, -1.00, 505.8, 373.9)">r</text><text xml:space="preserve" font-family="AlfaSlabOne-Regular,Alfa Slab One" font-size="200.0" fill="#4DBBE9" transform="matrix(1.00, 0.00, -0.00, -1.00, 610.0, 373.9)">e</text><text xml:space="preserve" font-family="AlfaSlabOne-Regular,Alfa Slab One" font-size="200.0" fill="#4DBBE9" transform="matrix(1.00, 0.00, -0.00, -1.00, 727.6, 373.9)">q</text><text xml:space="preserve" font-family="AlfaSlabOne-Regular,Alfa Slab One" font-size="200.0" fill="#4DBBE9" transform="matrix(1.00, 0.00, -0.00, -1.00, 858.4, 373.9)">u</text><text xml:space="preserve" font-family="AlfaSlabOne-Regular,Alfa Slab One" font-size="200.0" fill="#4DBBE9" transform="matrix(1.00, 0.00, -0.00, -1.00, 993.6, 373.9)">e</text><text xml:space="preserve" font-family="AlfaSlabOne-Regular,Alfa Slab One" font-size="200.0" fill="#4DBBE9" transform="matrix(1.00, 0.00, -0.00, -1.00, 1111.2, 373.9)">s</text><text xml:space="preserve" font-family="AlfaSlabOne-Regular,Alfa Slab One" font-size="200.0" fill="#4DBBE9" transform="matrix(1.00, 0.00, -0.00, -1.00, 1218.0, 373.9)">t</text><text xml:space="preserve" font-family="AlfaSlabOne-Regular,Alfa Slab One" font-size="200.0" fill="#4DBBE9" transform="matrix(1.00, 0.00, -0.00, -1.00, 1307.4, 373.9)">s</text></g></svg>