<?xml version="1.0" encoding="UTF-8" standalone="no"?><svg xmlns="http://www.w3.org/2000/svg" xmlns:xlink="http://www.w3.org/1999/xlink" clip-rule="evenodd" stroke-miterlimit="10" viewBox="0 0 1920 1080"><desc>SVG generated by Keynote</desc><defs></defs><g transform="matrix(1.00, 0.00, -0.00, -1.00, 0.0, 1080.0)"><path d="M 0.0 1080.0 L 1920.0 1080.0 L 1920.0 0.0 L 0.0 0.0 Z M 0.0 1080.0 " fill="#FFFFFF"></path><text xml:space="preserve" font-family="AlfaSlabOne-Regular,Alfa Slab One" font-size="90.0" fill="#4DBBE9" transform="matrix(1.00, 0.00, -0.00, -1.00, 607.2, 443.1)">@</text><text xml:space="preserve" font-family="AlfaSlabOne-Regular,Alfa Slab One" font-size="90.0" fill="#4DBBE9" transform="matrix(1.00, 0.00, -0.00, -1.00, 710.5, 443.1)">k</text><text xml:space="preserve" font-family="AlfaSlabOne-Regular,Alfa Slab One" font-size="90.0" fill="#4DBBE9" transform="matrix(1.00, 0.00, -0.00, -1.00, 771.2, 443.1)">y</text><text xml:space="preserve" font-family="AlfaSlabOne-Regular,Alfa Slab One" font-size="90.0" fill="#4DBBE9" transform="matrix(1.00, 0.00, -0.00, -1.00, 829.5, 443.1)">l</text><text xml:space="preserve" font-family="AlfaSlabOne-Regular,Alfa Slab One" font-size="90.0" fill="#4DBBE9" transform="matrix(1.00, 0.00, -0.00, -1.00, 860.6, 443.1)">e</text><text xml:space="preserve" font-family="AlfaSlabOne-Regular,Alfa Slab One" font-size="90.0" fill="#4DBBE9" transform="matrix(1.00, 0.00, -0.00, -1.00, 913.6, 443.1)">a</text><text xml:space="preserve" font-family="AlfaSlabOne-Regular,Alfa Slab One" font-size="90.0" fill="#4DBBE9" transform="matrix(1.00, 0.00, -0.00, -1.00, 972.2, 443.1)">s</text><text xml:space="preserve" font-family="AlfaSlabOne-Regular,Alfa Slab One" font-size="90.0" fill="#4DBBE9" transform="matrix(1.00, 0.00, -0.00, -1.00, 1020.3, 443.1)">h</text><text xml:space="preserve" font-family="AlfaSlabOne-Regular,Alfa Slab One" font-size="90.0" fill="#4DBBE9" transform="matrix(1.00, 0.00, -0.00, -1.00, 1082.6, 443.1)">i</text><text xml:space="preserve" font-family="AlfaSlabOne-Regular,Alfa Slab One" font-size="90.0" fill="#4DBBE9" transform="matrix(1.00, 0.00, -0.00, -1.00, 1113.3, 443.1)">p</text><text xml:space="preserve" font-family="AlfaSlabOne-Regular,Alfa Slab One" font-size="90.0" fill="#4DBBE9" transform="matrix(1.00, 0.00, -0.00, -1.00, 1170.4, 443.1)">l</text><text xml:space="preserve" font-family="AlfaSlabOne-Regular,Alfa Slab One" font-size="90.0" fill="#4DBBE9" transform="matrix(1.00, 0.00, -0.00, -1.00, 1201.6, 443.1)">e</text><text xml:space="preserve" font-family="AlfaSlabOne-Regular,Alfa Slab One" font-size="90.0" fill="#4DBBE9" transform="matrix(1.00, 0.00, -0.00, -1.00, 1254.5, 443.1)">y</text><path d="M 403.7 735.2 L 1516.3 735.2 L 1516.3 461.2 L 403.7 461.2 Z M 403.7 735.2 " fill="#000000" fill-opacity="0.00"></path><text xml:space="preserve" font-family="AlfaSlabOne-Regular,Alfa Slab One" font-size="200.0" fill="#1B140C" transform="matrix(1.00, 0.00, -0.00, -1.00, 403.7, 527.8)">m</text><text xml:space="preserve" font-family="AlfaSlabOne-Regular,Alfa Slab One" font-size="200.0" fill="#1B140C" transform="matrix(1.00, 0.00, -0.00, -1.00, 611.3, 527.8)">o</text><text xml:space="preserve" font-family="AlfaSlabOne-Regular,Alfa Slab One" font-size="200.0" fill="#1B140C" transform="matrix(1.00, 0.00, -0.00, -1.00, 735.3, 527.8)">d</text><text xml:space="preserve" font-family="AlfaSlabOne-Regular,Alfa Slab One" font-size="200.0" fill="#1B140C" transform="matrix(1.00, 0.00, -0.00, -1.00, 866.5, 527.8)">u</text><text xml:space="preserve" font-family="AlfaSlabOne-Regular,Alfa Slab One" font-size="200.0" fill="#1B140C" transform="matrix(1.00, 0.00, -0.00, -1.00, 1001.7, 527.8)">l</text><text xml:space="preserve" font-family="AlfaSlabOne-Regular,Alfa Slab One" font-size="200.0" fill="#1B140C" transform="matrix(1.00, 0.00, -0.00, -1.00, 1070.9, 527.8)">e</text><text xml:space="preserve" font-family="AlfaSlabOne-Regular,Alfa Slab One" font-size="200.0" fill="#1B140C" transform="matrix(1.00, 0.00, -0.00, -1.00, 1188.5, 527.8)">s</text><text xml:space="preserve" font-family="AlfaSlabOne-Regular,Alfa Slab One" font-size="200.0" fill="#1B140C" transform="matrix(1.00, 0.00, -0.00, -1.00, 1295.3, 527.8)">.</text><text xml:space="preserve" font-family="AlfaSlabOne-Regular,Alfa Slab One" font-size="200.0" fill="#1B140C" transform="matrix(1.00, 0.00, -0.00, -1.00, 1344.1, 527.8)">j</text><text xml:space="preserve" font-family="AlfaSlabOne-Regular,Alfa Slab One" font-size="200.0" fill="#1B140C" transform="matrix(1.00, 0.00, -0.00, -1.00, 1409.5, 527.8)">s</text></g></svg>