<?xml version="1.0" encoding="UTF-8" standalone="no"?><svg xmlns="http://www.w3.org/2000/svg" xmlns:xlink="http://www.w3.org/1999/xlink" clip-rule="evenodd" stroke-miterlimit="10" viewBox="0 0 1920 1080"><desc>SVG generated by Keynote</desc><defs></defs><g transform="matrix(1.00, 0.00, -0.00, -1.00, 0.0, 1080.0)"><path d="M 0.0 1080.0 L 1920.0 1080.0 L 1920.0 0.0 L 0.0 0.0 Z M 0.0 1080.0 " fill="#FFFFFF"></path><text xml:space="preserve" font-family="CourierNewPS-BoldMT,Courier New" font-weight="bold" font-size="44.0" fill="#000000" transform="matrix(1.00, 0.00, -0.00, -1.00, 616.2, 703.2)">&lt;</text><text xml:space="preserve" font-family="CourierNewPS-BoldMT,Courier New" font-weight="bold" font-size="44.0" fill="#000000" transform="matrix(1.00, 0.00, -0.00, -1.00, 642.7, 703.2)">h</text><text xml:space="preserve" font-family="CourierNewPS-BoldMT,Courier New" font-weight="bold" font-size="44.0" fill="#000000" transform="matrix(1.00, 0.00, -0.00, -1.00, 669.1, 703.2)">t</text><text xml:space="preserve" font-family="CourierNewPS-BoldMT,Courier New" font-weight="bold" font-size="44.0" fill="#000000" transform="matrix(1.00, 0.00, -0.00, -1.00, 695.5, 703.2)">m</text><text xml:space="preserve" font-family="CourierNewPS-BoldMT,Courier New" font-weight="bold" font-size="44.0" fill="#000000" transform="matrix(1.00, 0.00, -0.00, -1.00, 721.9, 703.2)">l</text><text xml:space="preserve" font-family="CourierNewPS-BoldMT,Courier New" font-weight="bold" font-size="44.0" fill="#000000" transform="matrix(1.00, 0.00, -0.00, -1.00, 748.3, 703.2)">&gt;</text><text xml:space="preserve" font-family="CourierNewPSMT,Courier New" font-size="44.0" fill="#000000" transform="matrix(1.00, 0.00, -0.00, -1.00, 774.7, 703.2)"> </text><text xml:space="preserve" font-family="CourierNewPSMT,Courier New" font-size="44.0" fill="#000000" transform="matrix(1.00, 0.00, -0.00, -1.00, 616.2, 653.2)"> </text><text xml:space="preserve" font-family="CourierNewPSMT,Courier New" font-size="44.0" fill="#000000" transform="matrix(1.00, 0.00, -0.00, -1.00, 642.7, 653.2)"> </text><text xml:space="preserve" font-family="CourierNewPS-BoldMT,Courier New" font-weight="bold" font-size="44.0" fill="#000000" transform="matrix(1.00, 0.00, -0.00, -1.00, 669.1, 653.2)">&lt;</text><text xml:space="preserve" font-family="CourierNewPS-BoldMT,Courier New" font-weight="bold" font-size="44.0" fill="#000000" transform="matrix(1.00, 0.00, -0.00, -1.00, 695.5, 653.2)">h</text><text xml:space="preserve" font-family="CourierNewPS-BoldMT,Courier New" font-weight="bold" font-size="44.0" fill="#000000" transform="matrix(1.00, 0.00, -0.00, -1.00, 721.9, 653.2)">e</text><text xml:space="preserve" font-family="CourierNewPS-BoldMT,Courier New" font-weight="bold" font-size="44.0" fill="#000000" transform="matrix(1.00, 0.00, -0.00, -1.00, 748.3, 653.2)">a</text><text xml:space="preserve" font-family="CourierNewPS-BoldMT,Courier New" font-weight="bold" font-size="44.0" fill="#000000" transform="matrix(1.00, 0.00, -0.00, -1.00, 774.7, 653.2)">d</text><text xml:space="preserve" font-family="CourierNewPS-BoldMT,Courier New" font-weight="bold" font-size="44.0" fill="#000000" transform="matrix(1.00, 0.00, -0.00, -1.00, 801.1, 653.2)">&gt;</text><text xml:space="preserve" font-family="CourierNewPS-BoldMT,Courier New" font-weight="bold" font-size="44.0" fill="#000000" transform="matrix(1.00, 0.00, -0.00, -1.00, 827.5, 653.2)"> </text><text xml:space="preserve" font-family="CourierNewPSMT,Courier New" font-size="44.0" fill="#000000" transform="matrix(1.00, 0.00, -0.00, -1.00, 616.2, 603.2)"> </text><text xml:space="preserve" font-family="CourierNewPSMT,Courier New" font-size="44.0" fill="#000000" transform="matrix(1.00, 0.00, -0.00, -1.00, 642.7, 603.2)"> </text><text xml:space="preserve" font-family="CourierNewPS-BoldMT,Courier New" font-weight="bold" font-size="44.0" fill="#000000" transform="matrix(1.00, 0.00, -0.00, -1.00, 669.1, 603.2)">&lt;</text><text xml:space="preserve" font-family="CourierNewPS-BoldMT,Courier New" font-weight="bold" font-size="44.0" fill="#000000" transform="matrix(1.00, 0.00, -0.00, -1.00, 695.5, 603.2)">/</text><text xml:space="preserve" font-family="CourierNewPS-BoldMT,Courier New" font-weight="bold" font-size="44.0" fill="#000000" transform="matrix(1.00, 0.00, -0.00, -1.00, 721.9, 603.2)">h</text><text xml:space="preserve" font-family="CourierNewPS-BoldMT,Courier New" font-weight="bold" font-size="44.0" fill="#000000" transform="matrix(1.00, 0.00, -0.00, -1.00, 748.3, 603.2)">e</text><text xml:space="preserve" font-family="CourierNewPS-BoldMT,Courier New" font-weight="bold" font-size="44.0" fill="#000000" transform="matrix(1.00, 0.00, -0.00, -1.00, 774.7, 603.2)">a</text><text xml:space="preserve" font-family="CourierNewPS-BoldMT,Courier New" font-weight="bold" font-size="44.0" fill="#000000" transform="matrix(1.00, 0.00, -0.00, -1.00, 801.1, 603.2)">d</text><text xml:space="preserve" font-family="CourierNewPS-BoldMT,Courier New" font-weight="bold" font-size="44.0" fill="#000000" transform="matrix(1.00, 0.00, -0.00, -1.00, 827.5, 603.2)">&gt;</text><text xml:space="preserve" font-family="CourierNewPSMT,Courier New" font-size="44.0" fill="#000000" transform="matrix(1.00, 0.00, -0.00, -1.00, 853.9, 603.2)"> </text><text xml:space="preserve" font-family="CourierNewPSMT,Courier New" font-size="44.0" fill="#000000" transform="matrix(1.00, 0.00, -0.00, -1.00, 616.2, 553.2)"> </text><text xml:space="preserve" font-family="CourierNewPSMT,Courier New" font-size="44.0" fill="#000000" transform="matrix(1.00, 0.00, -0.00, -1.00, 642.7, 553.2)"> </text><text xml:space="preserve" font-family="CourierNewPS-BoldMT,Courier New" font-weight="bold" font-size="44.0" fill="#000000" transform="matrix(1.00, 0.00, -0.00, -1.00, 669.1, 553.2)">&lt;</text><text xml:space="preserve" font-family="CourierNewPS-BoldMT,Courier New" font-weight="bold" font-size="44.0" fill="#000000" transform="matrix(1.00, 0.00, -0.00, -1.00, 695.5, 553.2)">b</text><text xml:space="preserve" font-family="CourierNewPS-BoldMT,Courier New" font-weight="bold" font-size="44.0" fill="#000000" transform="matrix(1.00, 0.00, -0.00, -1.00, 721.9, 553.2)">o</text><text xml:space="preserve" font-family="CourierNewPS-BoldMT,Courier New" font-weight="bold" font-size="44.0" fill="#000000" transform="matrix(1.00, 0.00, -0.00, -1.00, 748.3, 553.2)">d</text><text xml:space="preserve" font-family="CourierNewPS-BoldMT,Courier New" font-weight="bold" font-size="44.0" fill="#000000" transform="matrix(1.00, 0.00, -0.00, -1.00, 774.7, 553.2)">y</text><text xml:space="preserve" font-family="CourierNewPS-BoldMT,Courier New" font-weight="bold" font-size="44.0" fill="#000000" transform="matrix(1.00, 0.00, -0.00, -1.00, 801.1, 553.2)">&gt;</text><text xml:space="preserve" font-family="CourierNewPSMT,Courier New" font-size="44.0" fill="#000000" transform="matrix(1.00, 0.00, -0.00, -1.00, 827.5, 553.2)"> </text><text xml:space="preserve" font-family="CourierNewPSMT,Courier New" font-size="44.0" fill="#000000" transform="matrix(1.00, 0.00, -0.00, -1.00, 616.2, 503.2)"> </text><text xml:space="preserve" font-family="CourierNewPSMT,Courier New" font-size="44.0" fill="#000000" transform="matrix(1.00, 0.00, -0.00, -1.00, 642.7, 503.2)"> </text><text xml:space="preserve" font-family="CourierNewPSMT,Courier New" font-size="44.0" fill="#000000" transform="matrix(1.00, 0.00, -0.00, -1.00, 669.1, 503.2)"> </text><text xml:space="preserve" font-family="CourierNewPSMT,Courier New" font-size="44.0" fill="#000000" transform="matrix(1.00, 0.00, -0.00, -1.00, 695.5, 503.2)"> </text><text xml:space="preserve" font-family="CourierNewPS-BoldMT,Courier New" font-weight="bold" font-size="44.0" fill="#000000" transform="matrix(1.00, 0.00, -0.00, -1.00, 721.9, 503.2)">&lt;</text><text xml:space="preserve" font-family="CourierNewPS-BoldMT,Courier New" font-weight="bold" font-size="44.0" fill="#000000" transform="matrix(1.00, 0.00, -0.00, -1.00, 748.3, 503.2)">h</text><text xml:space="preserve" font-family="CourierNewPS-BoldMT,Courier New" font-weight="bold" font-size="44.0" fill="#000000" transform="matrix(1.00, 0.00, -0.00, -1.00, 774.7, 503.2)">1</text><text xml:space="preserve" font-family="CourierNewPS-BoldMT,Courier New" font-weight="bold" font-size="44.0" fill="#000000" transform="matrix(1.00, 0.00, -0.00, -1.00, 801.1, 503.2)">&gt;</text><text xml:space="preserve" font-family="CourierNewPSMT,Courier New" font-size="44.0" fill="#000000" transform="matrix(1.00, 0.00, -0.00, -1.00, 827.5, 503.2)">H</text><text xml:space="preserve" font-family="CourierNewPSMT,Courier New" font-size="44.0" fill="#000000" transform="matrix(1.00, 0.00, -0.00, -1.00, 853.9, 503.2)">e</text><text xml:space="preserve" font-family="CourierNewPSMT,Courier New" font-size="44.0" fill="#000000" transform="matrix(1.00, 0.00, -0.00, -1.00, 880.3, 503.2)">l</text><text xml:space="preserve" font-family="CourierNewPSMT,Courier New" font-size="44.0" fill="#000000" transform="matrix(1.00, 0.00, -0.00, -1.00, 906.7, 503.2)">l</text><text xml:space="preserve" font-family="CourierNewPSMT,Courier New" font-size="44.0" fill="#000000" transform="matrix(1.00, 0.00, -0.00, -1.00, 933.1, 503.2)">o</text><text xml:space="preserve" font-family="CourierNewPSMT,Courier New" font-size="44.0" fill="#000000" transform="matrix(1.00, 0.00, -0.00, -1.00, 959.5, 503.2)"> </text><text xml:space="preserve" font-family="CourierNewPSMT,Courier New" font-size="44.0" fill="#000000" transform="matrix(1.00, 0.00, -0.00, -1.00, 985.9, 503.2)">w</text><text xml:space="preserve" font-family="CourierNewPSMT,Courier New" font-size="44.0" fill="#000000" transform="matrix(1.00, 0.00, -0.00, -1.00, 1012.3, 503.2)">o</text><text xml:space="preserve" font-family="CourierNewPSMT,Courier New" font-size="44.0" fill="#000000" transform="matrix(1.00, 0.00, -0.00, -1.00, 1038.7, 503.2)">r</text><text xml:space="preserve" font-family="CourierNewPSMT,Courier New" font-size="44.0" fill="#000000" transform="matrix(1.00, 0.00, -0.00, -1.00, 1065.2, 503.2)">l</text><text xml:space="preserve" font-family="CourierNewPSMT,Courier New" font-size="44.0" fill="#000000" transform="matrix(1.00, 0.00, -0.00, -1.00, 1091.6, 503.2)">d</text><text xml:space="preserve" font-family="CourierNewPSMT,Courier New" font-size="44.0" fill="#000000" transform="matrix(1.00, 0.00, -0.00, -1.00, 1118.0, 503.2)">!</text><text xml:space="preserve" font-family="CourierNewPS-BoldMT,Courier New" font-weight="bold" font-size="44.0" fill="#000000" transform="matrix(1.00, 0.00, -0.00, -1.00, 1144.3, 503.2)">&lt;</text><text xml:space="preserve" font-family="CourierNewPS-BoldMT,Courier New" font-weight="bold" font-size="44.0" fill="#000000" transform="matrix(1.00, 0.00, -0.00, -1.00, 1170.7, 503.2)">/</text><text xml:space="preserve" font-family="CourierNewPS-BoldMT,Courier New" font-weight="bold" font-size="44.0" fill="#000000" transform="matrix(1.00, 0.00, -0.00, -1.00, 1197.1, 503.2)">h</text><text xml:space="preserve" font-family="CourierNewPS-BoldMT,Courier New" font-weight="bold" font-size="44.0" fill="#000000" transform="matrix(1.00, 0.00, -0.00, -1.00, 1223.6, 503.2)">1</text><text xml:space="preserve" font-family="CourierNewPS-BoldMT,Courier New" font-weight="bold" font-size="44.0" fill="#000000" transform="matrix(1.00, 0.00, -0.00, -1.00, 1250.0, 503.2)">&gt;</text><text xml:space="preserve" font-family="CourierNewPSMT,Courier New" font-size="44.0" fill="#000000" transform="matrix(1.00, 0.00, -0.00, -1.00, 1276.4, 503.2)"> </text><text xml:space="preserve" font-family="CourierNewPSMT,Courier New" font-size="44.0" fill="#000000" transform="matrix(1.00, 0.00, -0.00, -1.00, 616.2, 453.2)"> </text><text xml:space="preserve" font-family="CourierNewPSMT,Courier New" font-size="44.0" fill="#000000" transform="matrix(1.00, 0.00, -0.00, -1.00, 642.7, 453.2)"> </text><text xml:space="preserve" font-family="CourierNewPS-BoldMT,Courier New" font-weight="bold" font-size="44.0" fill="#000000" transform="matrix(1.00, 0.00, -0.00, -1.00, 669.1, 453.2)">&lt;</text><text xml:space="preserve" font-family="CourierNewPS-BoldMT,Courier New" font-weight="bold" font-size="44.0" fill="#000000" transform="matrix(1.00, 0.00, -0.00, -1.00, 695.5, 453.2)">/</text><text xml:space="preserve" font-family="CourierNewPS-BoldMT,Courier New" font-weight="bold" font-size="44.0" fill="#000000" transform="matrix(1.00, 0.00, -0.00, -1.00, 721.9, 453.2)">b</text><text xml:space="preserve" font-family="CourierNewPS-BoldMT,Courier New" font-weight="bold" font-size="44.0" fill="#000000" transform="matrix(1.00, 0.00, -0.00, -1.00, 748.3, 453.2)">o</text><text xml:space="preserve" font-family="CourierNewPS-BoldMT,Courier New" font-weight="bold" font-size="44.0" fill="#000000" transform="matrix(1.00, 0.00, -0.00, -1.00, 774.7, 453.2)">d</text><text xml:space="preserve" font-family="CourierNewPS-BoldMT,Courier New" font-weight="bold" font-size="44.0" fill="#000000" transform="matrix(1.00, 0.00, -0.00, -1.00, 801.1, 453.2)">y</text><text xml:space="preserve" font-family="CourierNewPS-BoldMT,Courier New" font-weight="bold" font-size="44.0" fill="#000000" transform="matrix(1.00, 0.00, -0.00, -1.00, 827.5, 453.2)">&gt;</text><text xml:space="preserve" font-family="CourierNewPSMT,Courier New" font-size="44.0" fill="#000000" transform="matrix(1.00, 0.00, -0.00, -1.00, 853.9, 453.2)"> </text><text xml:space="preserve" font-family="CourierNewPS-BoldMT,Courier New" font-weight="bold" font-size="44.0" fill="#000000" transform="matrix(1.00, 0.00, -0.00, -1.00, 616.2, 403.2)">&lt;</text><text xml:space="preserve" font-family="CourierNewPS-BoldMT,Courier New" font-weight="bold" font-size="44.0" fill="#000000" transform="matrix(1.00, 0.00, -0.00, -1.00, 642.7, 403.2)">/</text><text xml:space="preserve" font-family="CourierNewPS-BoldMT,Courier New" font-weight="bold" font-size="44.0" fill="#000000" transform="matrix(1.00, 0.00, -0.00, -1.00, 669.1, 403.2)">h</text><text xml:space="preserve" font-family="CourierNewPS-BoldMT,Courier New" font-weight="bold" font-size="44.0" fill="#000000" transform="matrix(1.00, 0.00, -0.00, -1.00, 695.5, 403.2)">t</text><text xml:space="preserve" font-family="CourierNewPS-BoldMT,Courier New" font-weight="bold" font-size="44.0" fill="#000000" transform="matrix(1.00, 0.00, -0.00, -1.00, 721.9, 403.2)">m</text><text xml:space="preserve" font-family="CourierNewPS-BoldMT,Courier New" font-weight="bold" font-size="44.0" fill="#000000" transform="matrix(1.00, 0.00, -0.00, -1.00, 748.3, 403.2)">l</text><text xml:space="preserve" font-family="CourierNewPS-BoldMT,Courier New" font-weight="bold" font-size="44.0" fill="#000000" transform="matrix(1.00, 0.00, -0.00, -1.00, 774.7, 403.2)">&gt;</text><text xml:space="preserve" font-family="CourierNewPSMT,Courier New" font-size="44.0" fill="#000000" transform="matrix(1.00, 0.00, -0.00, -1.00, 801.1, 403.2)"> </text></g></svg>