<?xml version="1.0" encoding="UTF-8" standalone="no"?><svg xmlns="http://www.w3.org/2000/svg" xmlns:xlink="http://www.w3.org/1999/xlink" clip-rule="evenodd" stroke-miterlimit="10" viewBox="0 0 1920 1080"><desc>SVG generated by Keynote</desc><defs></defs><g transform="matrix(1.00, 0.00, -0.00, -1.00, 0.0, 1080.0)"><path d="M 0.0 1080.0 L 1920.0 1080.0 L 1920.0 0.0 L 0.0 0.0 Z M 0.0 1080.0 " fill="#FFFFFF"></path><path d="M 212.8 677.1 L 1707.2 677.1 L 1707.2 403.1 L 212.8 403.1 Z M 212.8 677.1 " fill="#000000" fill-opacity="0.00"></path><text xml:space="preserve" font-family="AlfaSlabOne-Regular,Alfa Slab One" font-size="200.0" fill="#4DBBE9" transform="matrix(1.00, 0.00, -0.00, -1.00, 212.8, 469.7)">n</text><text xml:space="preserve" font-family="AlfaSlabOne-Regular,Alfa Slab One" font-size="200.0" fill="#4DBBE9" transform="matrix(1.00, 0.00, -0.00, -1.00, 348.4, 469.7)">o</text><text xml:space="preserve" font-family="AlfaSlabOne-Regular,Alfa Slab One" font-size="200.0" fill="#4DBBE9" transform="matrix(1.00, 0.00, -0.00, -1.00, 472.4, 469.7)"> </text><text xml:space="preserve" font-family="AlfaSlabOne-Regular,Alfa Slab One" font-size="200.0" fill="#4DBBE9" transform="matrix(1.00, 0.00, -0.00, -1.00, 532.4, 469.7)">g</text><text xml:space="preserve" font-family="AlfaSlabOne-Regular,Alfa Slab One" font-size="200.0" fill="#4DBBE9" transform="matrix(1.00, 0.00, -0.00, -1.00, 659.6, 469.7)">l</text><text xml:space="preserve" font-family="AlfaSlabOne-Regular,Alfa Slab One" font-size="200.0" fill="#4DBBE9" transform="matrix(1.00, 0.00, -0.00, -1.00, 728.8, 469.7)">o</text><text xml:space="preserve" font-family="AlfaSlabOne-Regular,Alfa Slab One" font-size="200.0" fill="#4DBBE9" transform="matrix(1.00, 0.00, -0.00, -1.00, 852.8, 469.7)">b</text><text xml:space="preserve" font-family="AlfaSlabOne-Regular,Alfa Slab One" font-size="200.0" fill="#4DBBE9" transform="matrix(1.00, 0.00, -0.00, -1.00, 985.6, 469.7)">a</text><text xml:space="preserve" font-family="AlfaSlabOne-Regular,Alfa Slab One" font-size="200.0" fill="#4DBBE9" transform="matrix(1.00, 0.00, -0.00, -1.00, 1116.0, 469.7)">l</text><text xml:space="preserve" font-family="AlfaSlabOne-Regular,Alfa Slab One" font-size="200.0" fill="#4DBBE9" transform="matrix(1.00, 0.00, -0.00, -1.00, 1185.2, 469.7)"> </text><text xml:space="preserve" font-family="AlfaSlabOne-Regular,Alfa Slab One" font-size="200.0" fill="#4DBBE9" transform="matrix(1.00, 0.00, -0.00, -1.00, 1245.2, 469.7)">h</text><text xml:space="preserve" font-family="AlfaSlabOne-Regular,Alfa Slab One" font-size="200.0" fill="#4DBBE9" transform="matrix(1.00, 0.00, -0.00, -1.00, 1383.6, 469.7)">e</text><text xml:space="preserve" font-family="AlfaSlabOne-Regular,Alfa Slab One" font-size="200.0" fill="#4DBBE9" transform="matrix(1.00, 0.00, -0.00, -1.00, 1500.2, 469.7)">l</text><text xml:space="preserve" font-family="AlfaSlabOne-Regular,Alfa Slab One" font-size="200.0" fill="#4DBBE9" transform="matrix(1.00, 0.00, -0.00, -1.00, 1569.4, 469.7)">l</text><text xml:space="preserve" font-family="AlfaSlabOne-Regular,Alfa Slab One" font-size="200.0" fill="#4DBBE9" transform="matrix(1.00, 0.00, -0.00, -1.00, 1638.6, 469.7)">!</text></g></svg>