<?xml version="1.0" encoding="UTF-8" standalone="no"?><svg xmlns="http://www.w3.org/2000/svg" xmlns:xlink="http://www.w3.org/1999/xlink" clip-rule="evenodd" stroke-miterlimit="10" viewBox="0 0 1920 1080"><desc>SVG generated by Keynote</desc><defs></defs><g transform="matrix(1.00, 0.00, -0.00, -1.00, 0.0, 1080.0)"><path d="M 0.0 1080.0 L 1920.0 1080.0 L 1920.0 0.0 L 0.0 0.0 Z M 0.0 1080.0 " fill="#FFFFFF"></path><text xml:space="preserve" font-family="AlfaSlabOne-Regular,Alfa Slab One" font-size="120.0" fill="#00D5FC" transform="matrix(1.00, 0.00, -0.00, -1.00, 371.3, 879.3)">o</text><text xml:space="preserve" font-family="AlfaSlabOne-Regular,Alfa Slab One" font-size="120.0" fill="#00D5FC" transform="matrix(1.00, 0.00, -0.00, -1.00, 445.7, 879.3)">m</text><text xml:space="preserve" font-family="AlfaSlabOne-Regular,Alfa Slab One" font-size="120.0" fill="#00D5FC" transform="matrix(1.00, 0.00, -0.00, -1.00, 570.2, 879.3)">i</text><text xml:space="preserve" font-family="AlfaSlabOne-Regular,Alfa Slab One" font-size="120.0" fill="#00D5FC" transform="matrix(1.00, 0.00, -0.00, -1.00, 611.8, 879.3)">t</text><text xml:space="preserve" font-family="AlfaSlabOne-Regular,Alfa Slab One" font-size="120.0" fill="#00D5FC" transform="matrix(1.00, 0.00, -0.00, -1.00, 665.4, 879.3)">t</text><text xml:space="preserve" font-family="AlfaSlabOne-Regular,Alfa Slab One" font-size="120.0" fill="#00D5FC" transform="matrix(1.00, 0.00, -0.00, -1.00, 719.0, 879.3)">e</text><text xml:space="preserve" font-family="AlfaSlabOne-Regular,Alfa Slab One" font-size="120.0" fill="#00D5FC" transform="matrix(1.00, 0.00, -0.00, -1.00, 789.6, 879.3)">d</text><text xml:space="preserve" font-family="AlfaSlabOne-Regular,Alfa Slab One" font-size="120.0" fill="#00D5FC" transform="matrix(1.00, 0.00, -0.00, -1.00, 868.3, 879.3)"> </text><text xml:space="preserve" font-family="AlfaSlabOne-Regular,Alfa Slab One" font-size="120.0" fill="#00D5FC" transform="matrix(1.00, 0.00, -0.00, -1.00, 904.3, 879.3)">f</text><text xml:space="preserve" font-family="AlfaSlabOne-Regular,Alfa Slab One" font-size="120.0" fill="#00D5FC" transform="matrix(1.00, 0.00, -0.00, -1.00, 948.7, 879.3)">o</text><text xml:space="preserve" font-family="AlfaSlabOne-Regular,Alfa Slab One" font-size="120.0" fill="#00D5FC" transform="matrix(1.00, 0.00, -0.00, -1.00, 1023.1, 879.3)">r</text><text xml:space="preserve" font-family="AlfaSlabOne-Regular,Alfa Slab One" font-size="120.0" fill="#00D5FC" transform="matrix(1.00, 0.00, -0.00, -1.00, 1085.6, 879.3)"> </text><text xml:space="preserve" font-family="AlfaSlabOne-Regular,Alfa Slab One" font-size="120.0" fill="#00D5FC" transform="matrix(1.00, 0.00, -0.00, -1.00, 1121.6, 879.3)">s</text><text xml:space="preserve" font-family="AlfaSlabOne-Regular,Alfa Slab One" font-size="120.0" fill="#00D5FC" transform="matrix(1.00, 0.00, -0.00, -1.00, 1185.7, 879.3)">a</text><text xml:space="preserve" font-family="AlfaSlabOne-Regular,Alfa Slab One" font-size="120.0" fill="#00D5FC" transform="matrix(1.00, 0.00, -0.00, -1.00, 1264.0, 879.3)">n</text><text xml:space="preserve" font-family="AlfaSlabOne-Regular,Alfa Slab One" font-size="120.0" fill="#00D5FC" transform="matrix(1.00, 0.00, -0.00, -1.00, 1346.5, 879.3)">i</text><text xml:space="preserve" font-family="AlfaSlabOne-Regular,Alfa Slab One" font-size="120.0" fill="#00D5FC" transform="matrix(1.00, 0.00, -0.00, -1.00, 1388.0, 879.3)">t</text><text xml:space="preserve" font-family="AlfaSlabOne-Regular,Alfa Slab One" font-size="120.0" fill="#00D5FC" transform="matrix(1.00, 0.00, -0.00, -1.00, 1441.7, 879.3)">y</text><text xml:space="preserve" font-family="AlfaSlabOne-Regular,Alfa Slab One" font-size="120.0" fill="#00D5FC" transform="matrix(1.00, 0.00, -0.00, -1.00, 1519.4, 879.3)">:</text><text xml:space="preserve" font-family="AlfaSlabOne-Regular,Alfa Slab One" font-size="90.0" fill="#00D5FC" transform="matrix(1.00, 0.00, -0.00, -1.00, 348.7, 620.5)">•</text><text xml:space="preserve" font-family="AlfaSlabOne-Regular,Alfa Slab One" font-size="120.0" fill="#00D5FC" transform="matrix(1.00, 0.00, -0.00, -1.00, 464.1, 610.0)">d</text><text xml:space="preserve" font-family="AlfaSlabOne-Regular,Alfa Slab One" font-size="120.0" fill="#00D5FC" transform="matrix(1.00, 0.00, -0.00, -1.00, 542.8, 610.0)">u</text><text xml:space="preserve" font-family="AlfaSlabOne-Regular,Alfa Slab One" font-size="120.0" fill="#00D5FC" transform="matrix(1.00, 0.00, -0.00, -1.00, 623.9, 610.0)">o</text><text xml:space="preserve" font-family="AlfaSlabOne-Regular,Alfa Slab One" font-size="120.0" fill="#00D5FC" transform="matrix(1.00, 0.00, -0.00, -1.00, 698.3, 610.0)">.</text><text xml:space="preserve" font-family="AlfaSlabOne-Regular,Alfa Slab One" font-size="120.0" fill="#00D5FC" transform="matrix(1.00, 0.00, -0.00, -1.00, 727.6, 610.0)">j</text><text xml:space="preserve" font-family="AlfaSlabOne-Regular,Alfa Slab One" font-size="120.0" fill="#00D5FC" transform="matrix(1.00, 0.00, -0.00, -1.00, 766.8, 610.0)">s</text><text xml:space="preserve" font-family="AlfaSlabOne-Regular,Alfa Slab One" font-size="120.0" fill="#00D5FC" transform="matrix(1.00, 0.00, -0.00, -1.00, 830.9, 610.0)"> </text><text xml:space="preserve" font-family="AlfaSlabOne-Regular,Alfa Slab One" font-size="90.0" fill="#00D5FC" transform="matrix(1.00, 0.00, -0.00, -1.00, 348.7, 456.5)">•</text><text xml:space="preserve" font-family="AlfaSlabOne-Regular,Alfa Slab One" font-size="120.0" fill="#00D5FC" transform="matrix(1.00, 0.00, -0.00, -1.00, 464.1, 446.0)">a</text><text xml:space="preserve" font-family="AlfaSlabOne-Regular,Alfa Slab One" font-size="120.0" fill="#00D5FC" transform="matrix(1.00, 0.00, -0.00, -1.00, 542.3, 446.0)">n</text><text xml:space="preserve" font-family="AlfaSlabOne-Regular,Alfa Slab One" font-size="120.0" fill="#00D5FC" transform="matrix(1.00, 0.00, -0.00, -1.00, 623.7, 446.0)">g</text><text xml:space="preserve" font-family="AlfaSlabOne-Regular,Alfa Slab One" font-size="120.0" fill="#00D5FC" transform="matrix(1.00, 0.00, -0.00, -1.00, 700.0, 446.0)">u</text><text xml:space="preserve" font-family="AlfaSlabOne-Regular,Alfa Slab One" font-size="120.0" fill="#00D5FC" transform="matrix(1.00, 0.00, -0.00, -1.00, 781.1, 446.0)">l</text><text xml:space="preserve" font-family="AlfaSlabOne-Regular,Alfa Slab One" font-size="120.0" fill="#00D5FC" transform="matrix(1.00, 0.00, -0.00, -1.00, 822.6, 446.0)">a</text><text xml:space="preserve" font-family="AlfaSlabOne-Regular,Alfa Slab One" font-size="120.0" fill="#00D5FC" transform="matrix(1.00, 0.00, -0.00, -1.00, 900.9, 446.0)">r</text><text xml:space="preserve" font-family="AlfaSlabOne-Regular,Alfa Slab One" font-size="120.0" fill="#00D5FC" transform="matrix(1.00, 0.00, -0.00, -1.00, 963.4, 446.0)"> </text><text xml:space="preserve" font-family="AlfaSlabOne-Regular,Alfa Slab One" font-size="120.0" fill="#00D5FC" transform="matrix(1.00, 0.00, -0.00, -1.00, 999.4, 446.0)">m</text><text xml:space="preserve" font-family="AlfaSlabOne-Regular,Alfa Slab One" font-size="120.0" fill="#00D5FC" transform="matrix(1.00, 0.00, -0.00, -1.00, 1123.9, 446.0)">o</text><text xml:space="preserve" font-family="AlfaSlabOne-Regular,Alfa Slab One" font-size="120.0" fill="#00D5FC" transform="matrix(1.00, 0.00, -0.00, -1.00, 1198.3, 446.0)">d</text><text xml:space="preserve" font-family="AlfaSlabOne-Regular,Alfa Slab One" font-size="120.0" fill="#00D5FC" transform="matrix(1.00, 0.00, -0.00, -1.00, 1277.1, 446.0)">u</text><text xml:space="preserve" font-family="AlfaSlabOne-Regular,Alfa Slab One" font-size="120.0" fill="#00D5FC" transform="matrix(1.00, 0.00, -0.00, -1.00, 1358.2, 446.0)">l</text><text xml:space="preserve" font-family="AlfaSlabOne-Regular,Alfa Slab One" font-size="120.0" fill="#00D5FC" transform="matrix(1.00, 0.00, -0.00, -1.00, 1399.7, 446.0)">e</text><text xml:space="preserve" font-family="AlfaSlabOne-Regular,Alfa Slab One" font-size="120.0" fill="#00D5FC" transform="matrix(1.00, 0.00, -0.00, -1.00, 1470.3, 446.0)">s</text><text xml:space="preserve" font-family="AlfaSlabOne-Regular,Alfa Slab One" font-size="120.0" fill="#00D5FC" transform="matrix(1.00, 0.00, -0.00, -1.00, 1534.3, 446.0)"> </text><text xml:space="preserve" font-family="AlfaSlabOne-Regular,Alfa Slab One" font-size="90.0" fill="#00D5FC" transform="matrix(1.00, 0.00, -0.00, -1.00, 348.7, 292.5)">•</text><text xml:space="preserve" font-family="AlfaSlabOne-Regular,Alfa Slab One" font-size="120.0" fill="#00D5FC" transform="matrix(1.00, 0.00, -0.00, -1.00, 464.1, 282.0)">a</text><text xml:space="preserve" font-family="AlfaSlabOne-Regular,Alfa Slab One" font-size="120.0" fill="#00D5FC" transform="matrix(1.00, 0.00, -0.00, -1.00, 542.3, 282.0)">n</text><text xml:space="preserve" font-family="AlfaSlabOne-Regular,Alfa Slab One" font-size="120.0" fill="#00D5FC" transform="matrix(1.00, 0.00, -0.00, -1.00, 624.9, 282.0)">y</text><text xml:space="preserve" font-family="AlfaSlabOne-Regular,Alfa Slab One" font-size="120.0" fill="#00D5FC" transform="matrix(1.00, 0.00, -0.00, -1.00, 702.6, 282.0)">t</text><text xml:space="preserve" font-family="AlfaSlabOne-Regular,Alfa Slab One" font-size="120.0" fill="#00D5FC" transform="matrix(1.00, 0.00, -0.00, -1.00, 756.3, 282.0)">h</text><text xml:space="preserve" font-family="AlfaSlabOne-Regular,Alfa Slab One" font-size="120.0" fill="#00D5FC" transform="matrix(1.00, 0.00, -0.00, -1.00, 839.3, 282.0)">i</text><text xml:space="preserve" font-family="AlfaSlabOne-Regular,Alfa Slab One" font-size="120.0" fill="#00D5FC" transform="matrix(1.00, 0.00, -0.00, -1.00, 880.8, 282.0)">n</text><text xml:space="preserve" font-family="AlfaSlabOne-Regular,Alfa Slab One" font-size="120.0" fill="#00D5FC" transform="matrix(1.00, 0.00, -0.00, -1.00, 962.2, 282.0)">g</text><text xml:space="preserve" font-family="AlfaSlabOne-Regular,Alfa Slab One" font-size="120.0" fill="#00D5FC" transform="matrix(1.00, 0.00, -0.00, -1.00, 1040.9, 282.0)"> </text><text xml:space="preserve" font-family="AlfaSlabOne-Regular,Alfa Slab One" font-size="120.0" fill="#00D5FC" transform="matrix(1.00, 0.00, -0.00, -1.00, 1076.9, 282.0)">e</text><text xml:space="preserve" font-family="AlfaSlabOne-Regular,Alfa Slab One" font-size="120.0" fill="#00D5FC" transform="matrix(1.00, 0.00, -0.00, -1.00, 1146.9, 282.0)">l</text><text xml:space="preserve" font-family="AlfaSlabOne-Regular,Alfa Slab One" font-size="120.0" fill="#00D5FC" transform="matrix(1.00, 0.00, -0.00, -1.00, 1188.4, 282.0)">s</text><text xml:space="preserve" font-family="AlfaSlabOne-Regular,Alfa Slab One" font-size="120.0" fill="#00D5FC" transform="matrix(1.00, 0.00, -0.00, -1.00, 1252.5, 282.0)">e</text><text xml:space="preserve" font-family="AlfaSlabOne-Regular,Alfa Slab One" font-size="120.0" fill="#00D5FC" transform="matrix(1.00, 0.00, -0.00, -1.00, 1317.4, 282.0)">?</text></g></svg>