<?xml version="1.0" encoding="UTF-8" standalone="no"?><svg xmlns="http://www.w3.org/2000/svg" xmlns:xlink="http://www.w3.org/1999/xlink" clip-rule="evenodd" stroke-miterlimit="10" viewBox="0 0 1920 1080"><desc>SVG generated by Keynote</desc><defs></defs><g transform="matrix(1.00, 0.00, -0.00, -1.00, 0.0, 1080.0)"><path d="M 0.0 1080.0 L 1920.0 1080.0 L 1920.0 0.0 L 0.0 0.0 Z M 0.0 1080.0 " fill="#1B140C"></path><path d="M 219.7 868.6 L 1760.3 868.6 L 1760.3 594.6 L 219.7 594.6 Z M 219.7 868.6 " fill="#000000" fill-opacity="0.00"></path><path d="M 279.4 676.8 L 1700.6 676.8 L 1700.6 402.8 L 279.4 402.8 Z M 279.4 676.8 " fill="#000000" fill-opacity="0.00"></path><path d="M 213.6 485.0 L 1706.4 485.0 L 1706.4 211.0 L 213.6 211.0 Z M 213.6 485.0 " fill="#000000" fill-opacity="0.00"></path><text xml:space="preserve" font-family="AlfaSlabOne-Regular,Alfa Slab One" font-size="200.0" fill="#4DBBE9" transform="matrix(1.00, 0.00, -0.00, -1.00, 219.7, 661.2)">o</text><text xml:space="preserve" font-family="AlfaSlabOne-Regular,Alfa Slab One" font-size="200.0" fill="#4DBBE9" transform="matrix(1.00, 0.00, -0.00, -1.00, 343.7, 661.2)">r</text><text xml:space="preserve" font-family="AlfaSlabOne-Regular,Alfa Slab One" font-size="200.0" fill="#4DBBE9" transform="matrix(1.00, 0.00, -0.00, -1.00, 444.9, 661.2)">d</text><text xml:space="preserve" font-family="AlfaSlabOne-Regular,Alfa Slab One" font-size="200.0" fill="#4DBBE9" transform="matrix(1.00, 0.00, -0.00, -1.00, 576.1, 661.2)">e</text><text xml:space="preserve" font-family="AlfaSlabOne-Regular,Alfa Slab One" font-size="200.0" fill="#4DBBE9" transform="matrix(1.00, 0.00, -0.00, -1.00, 693.7, 661.2)">r</text><text xml:space="preserve" font-family="AlfaSlabOne-Regular,Alfa Slab One" font-size="200.0" fill="#4DBBE9" transform="matrix(1.00, 0.00, -0.00, -1.00, 797.9, 661.2)"> </text><text xml:space="preserve" font-family="AlfaSlabOne-Regular,Alfa Slab One" font-size="200.0" fill="#4DBBE9" transform="matrix(1.00, 0.00, -0.00, -1.00, 857.9, 661.2)">m</text><text xml:space="preserve" font-family="AlfaSlabOne-Regular,Alfa Slab One" font-size="200.0" fill="#4DBBE9" transform="matrix(1.00, 0.00, -0.00, -1.00, 1065.5, 661.2)">a</text><text xml:space="preserve" font-family="AlfaSlabOne-Regular,Alfa Slab One" font-size="200.0" fill="#4DBBE9" transform="matrix(1.00, 0.00, -0.00, -1.00, 1195.9, 661.2)">t</text><text xml:space="preserve" font-family="AlfaSlabOne-Regular,Alfa Slab One" font-size="200.0" fill="#4DBBE9" transform="matrix(1.00, 0.00, -0.00, -1.00, 1285.3, 661.2)">t</text><text xml:space="preserve" font-family="AlfaSlabOne-Regular,Alfa Slab One" font-size="200.0" fill="#4DBBE9" transform="matrix(1.00, 0.00, -0.00, -1.00, 1374.7, 661.2)">e</text><text xml:space="preserve" font-family="AlfaSlabOne-Regular,Alfa Slab One" font-size="200.0" fill="#4DBBE9" transform="matrix(1.00, 0.00, -0.00, -1.00, 1492.3, 661.2)">r</text><text xml:space="preserve" font-family="AlfaSlabOne-Regular,Alfa Slab One" font-size="200.0" fill="#4DBBE9" transform="matrix(1.00, 0.00, -0.00, -1.00, 1593.5, 661.2)">s</text><text xml:space="preserve" font-family="AlfaSlabOne-Regular,Alfa Slab One" font-size="200.0" fill="#4DBBE9" transform="matrix(1.00, 0.00, -0.00, -1.00, 1700.3, 661.2)"> </text><text xml:space="preserve" font-family="AlfaSlabOne-Regular,Alfa Slab One" font-size="200.0" fill="#4DBBE9" transform="matrix(1.00, 0.00, -0.00, -1.00, 279.4, 469.4)">(</text><text xml:space="preserve" font-family="AlfaSlabOne-Regular,Alfa Slab One" font-size="200.0" fill="#4DBBE9" transform="matrix(1.00, 0.00, -0.00, -1.00, 349.4, 469.4)">a</text><text xml:space="preserve" font-family="AlfaSlabOne-Regular,Alfa Slab One" font-size="200.0" fill="#4DBBE9" transform="matrix(1.00, 0.00, -0.00, -1.00, 479.8, 469.4)">n</text><text xml:space="preserve" font-family="AlfaSlabOne-Regular,Alfa Slab One" font-size="200.0" fill="#4DBBE9" transform="matrix(1.00, 0.00, -0.00, -1.00, 615.4, 469.4)">d</text><text xml:space="preserve" font-family="AlfaSlabOne-Regular,Alfa Slab One" font-size="200.0" fill="#4DBBE9" transform="matrix(1.00, 0.00, -0.00, -1.00, 746.6, 469.4)"> </text><text xml:space="preserve" font-family="AlfaSlabOne-Regular,Alfa Slab One" font-size="200.0" fill="#4DBBE9" transform="matrix(1.00, 0.00, -0.00, -1.00, 806.6, 469.4)">c</text><text xml:space="preserve" font-family="AlfaSlabOne-Regular,Alfa Slab One" font-size="200.0" fill="#4DBBE9" transform="matrix(1.00, 0.00, -0.00, -1.00, 917.4, 469.4)">i</text><text xml:space="preserve" font-family="AlfaSlabOne-Regular,Alfa Slab One" font-size="200.0" fill="#4DBBE9" transform="matrix(1.00, 0.00, -0.00, -1.00, 986.6, 469.4)">r</text><text xml:space="preserve" font-family="AlfaSlabOne-Regular,Alfa Slab One" font-size="200.0" fill="#4DBBE9" transform="matrix(1.00, 0.00, -0.00, -1.00, 1090.8, 469.4)">c</text><text xml:space="preserve" font-family="AlfaSlabOne-Regular,Alfa Slab One" font-size="200.0" fill="#4DBBE9" transform="matrix(1.00, 0.00, -0.00, -1.00, 1201.6, 469.4)">u</text><text xml:space="preserve" font-family="AlfaSlabOne-Regular,Alfa Slab One" font-size="200.0" fill="#4DBBE9" transform="matrix(1.00, 0.00, -0.00, -1.00, 1336.8, 469.4)">l</text><text xml:space="preserve" font-family="AlfaSlabOne-Regular,Alfa Slab One" font-size="200.0" fill="#4DBBE9" transform="matrix(1.00, 0.00, -0.00, -1.00, 1406.0, 469.4)">a</text><text xml:space="preserve" font-family="AlfaSlabOne-Regular,Alfa Slab One" font-size="200.0" fill="#4DBBE9" transform="matrix(1.00, 0.00, -0.00, -1.00, 1536.4, 469.4)">r</text><text xml:space="preserve" font-family="AlfaSlabOne-Regular,Alfa Slab One" font-size="200.0" fill="#4DBBE9" transform="matrix(1.00, 0.00, -0.00, -1.00, 1640.6, 469.4)"> </text><text xml:space="preserve" font-family="AlfaSlabOne-Regular,Alfa Slab One" font-size="200.0" fill="#4DBBE9" transform="matrix(1.00, 0.00, -0.00, -1.00, 213.6, 277.6)">d</text><text xml:space="preserve" font-family="AlfaSlabOne-Regular,Alfa Slab One" font-size="200.0" fill="#4DBBE9" transform="matrix(1.00, 0.00, -0.00, -1.00, 344.8, 277.6)">e</text><text xml:space="preserve" font-family="AlfaSlabOne-Regular,Alfa Slab One" font-size="200.0" fill="#4DBBE9" transform="matrix(1.00, 0.00, -0.00, -1.00, 462.4, 277.6)">p</text><text xml:space="preserve" font-family="AlfaSlabOne-Regular,Alfa Slab One" font-size="200.0" fill="#4DBBE9" transform="matrix(1.00, 0.00, -0.00, -1.00, 592.4, 277.6)">e</text><text xml:space="preserve" font-family="AlfaSlabOne-Regular,Alfa Slab One" font-size="200.0" fill="#4DBBE9" transform="matrix(1.00, 0.00, -0.00, -1.00, 710.0, 277.6)">n</text><text xml:space="preserve" font-family="AlfaSlabOne-Regular,Alfa Slab One" font-size="200.0" fill="#4DBBE9" transform="matrix(1.00, 0.00, -0.00, -1.00, 845.6, 277.6)">d</text><text xml:space="preserve" font-family="AlfaSlabOne-Regular,Alfa Slab One" font-size="200.0" fill="#4DBBE9" transform="matrix(1.00, 0.00, -0.00, -1.00, 976.8, 277.6)">e</text><text xml:space="preserve" font-family="AlfaSlabOne-Regular,Alfa Slab One" font-size="200.0" fill="#4DBBE9" transform="matrix(1.00, 0.00, -0.00, -1.00, 1094.4, 277.6)">n</text><text xml:space="preserve" font-family="AlfaSlabOne-Regular,Alfa Slab One" font-size="200.0" fill="#4DBBE9" transform="matrix(1.00, 0.00, -0.00, -1.00, 1232.0, 277.6)">c</text><text xml:space="preserve" font-family="AlfaSlabOne-Regular,Alfa Slab One" font-size="200.0" fill="#4DBBE9" transform="matrix(1.00, 0.00, -0.00, -1.00, 1342.8, 277.6)">i</text><text xml:space="preserve" font-family="AlfaSlabOne-Regular,Alfa Slab One" font-size="200.0" fill="#4DBBE9" transform="matrix(1.00, 0.00, -0.00, -1.00, 1412.0, 277.6)">e</text><text xml:space="preserve" font-family="AlfaSlabOne-Regular,Alfa Slab One" font-size="200.0" fill="#4DBBE9" transform="matrix(1.00, 0.00, -0.00, -1.00, 1529.6, 277.6)">s</text><text xml:space="preserve" font-family="AlfaSlabOne-Regular,Alfa Slab One" font-size="200.0" fill="#4DBBE9" transform="matrix(1.00, 0.00, -0.00, -1.00, 1636.4, 277.6)">)</text></g></svg>