<?xml version="1.0" encoding="UTF-8" standalone="no"?><svg xmlns="http://www.w3.org/2000/svg" xmlns:xlink="http://www.w3.org/1999/xlink" clip-rule="evenodd" stroke-miterlimit="10" viewBox="0 0 1920 1080"><desc>SVG generated by Keynote</desc><defs></defs><g transform="matrix(1.00, 0.00, -0.00, -1.00, 0.0, 1080.0)"><path d="M 0.0 1080.0 L 1920.0 1080.0 L 1920.0 0.0 L 0.0 0.0 Z M 0.0 1080.0 " fill="#FFFFFF"></path><text xml:space="preserve" font-family="CourierNewPS-BoldMT,Courier New" font-weight="bold" font-size="44.0" fill="#000000" transform="matrix(1.00, 0.00, -0.00, -1.00, 154.2, 828.2)">&lt;</text><text xml:space="preserve" font-family="CourierNewPS-BoldMT,Courier New" font-weight="bold" font-size="44.0" fill="#000000" transform="matrix(1.00, 0.00, -0.00, -1.00, 180.6, 828.2)">h</text><text xml:space="preserve" font-family="CourierNewPS-BoldMT,Courier New" font-weight="bold" font-size="44.0" fill="#000000" transform="matrix(1.00, 0.00, -0.00, -1.00, 207.0, 828.2)">t</text><text xml:space="preserve" font-family="CourierNewPS-BoldMT,Courier New" font-weight="bold" font-size="44.0" fill="#000000" transform="matrix(1.00, 0.00, -0.00, -1.00, 233.4, 828.2)">m</text><text xml:space="preserve" font-family="CourierNewPS-BoldMT,Courier New" font-weight="bold" font-size="44.0" fill="#000000" transform="matrix(1.00, 0.00, -0.00, -1.00, 259.8, 828.2)">l</text><text xml:space="preserve" font-family="CourierNewPS-BoldMT,Courier New" font-weight="bold" font-size="44.0" fill="#000000" transform="matrix(1.00, 0.00, -0.00, -1.00, 286.2, 828.2)">&gt;</text><text xml:space="preserve" font-family="CourierNewPSMT,Courier New" font-size="44.0" fill="#000000" transform="matrix(1.00, 0.00, -0.00, -1.00, 312.6, 828.2)"> </text><text xml:space="preserve" font-family="CourierNewPSMT,Courier New" font-size="44.0" fill="#000000" transform="matrix(1.00, 0.00, -0.00, -1.00, 154.2, 778.2)"> </text><text xml:space="preserve" font-family="CourierNewPSMT,Courier New" font-size="44.0" fill="#000000" transform="matrix(1.00, 0.00, -0.00, -1.00, 180.6, 778.2)"> </text><text xml:space="preserve" font-family="CourierNewPS-BoldMT,Courier New" font-weight="bold" font-size="44.0" fill="#000000" transform="matrix(1.00, 0.00, -0.00, -1.00, 207.0, 778.2)">&lt;</text><text xml:space="preserve" font-family="CourierNewPS-BoldMT,Courier New" font-weight="bold" font-size="44.0" fill="#000000" transform="matrix(1.00, 0.00, -0.00, -1.00, 233.4, 778.2)">h</text><text xml:space="preserve" font-family="CourierNewPS-BoldMT,Courier New" font-weight="bold" font-size="44.0" fill="#000000" transform="matrix(1.00, 0.00, -0.00, -1.00, 259.8, 778.2)">e</text><text xml:space="preserve" font-family="CourierNewPS-BoldMT,Courier New" font-weight="bold" font-size="44.0" fill="#000000" transform="matrix(1.00, 0.00, -0.00, -1.00, 286.2, 778.2)">a</text><text xml:space="preserve" font-family="CourierNewPS-BoldMT,Courier New" font-weight="bold" font-size="44.0" fill="#000000" transform="matrix(1.00, 0.00, -0.00, -1.00, 312.6, 778.2)">d</text><text xml:space="preserve" font-family="CourierNewPS-BoldMT,Courier New" font-weight="bold" font-size="44.0" fill="#000000" transform="matrix(1.00, 0.00, -0.00, -1.00, 339.0, 778.2)">&gt;</text><text xml:space="preserve" font-family="CourierNewPSMT,Courier New" font-size="44.0" fill="#000000" transform="matrix(1.00, 0.00, -0.00, -1.00, 365.4, 778.2)"> </text><text xml:space="preserve" font-family="CourierNewPSMT,Courier New" font-size="44.0" fill="#000000" transform="matrix(1.00, 0.00, -0.00, -1.00, 154.2, 728.2)"> </text><text xml:space="preserve" font-family="CourierNewPSMT,Courier New" font-size="44.0" fill="#000000" transform="matrix(1.00, 0.00, -0.00, -1.00, 180.6, 728.2)"> </text><text xml:space="preserve" font-family="CourierNewPSMT,Courier New" font-size="44.0" fill="#000000" transform="matrix(1.00, 0.00, -0.00, -1.00, 207.0, 728.2)"> </text><text xml:space="preserve" font-family="CourierNewPSMT,Courier New" font-size="44.0" fill="#000000" transform="matrix(1.00, 0.00, -0.00, -1.00, 233.4, 728.2)"> </text><text xml:space="preserve" font-family="CourierNewPS-BoldMT,Courier New" font-weight="bold" font-size="44.0" fill="#000000" transform="matrix(1.00, 0.00, -0.00, -1.00, 259.8, 728.2)">&lt;</text><text xml:space="preserve" font-family="CourierNewPS-BoldMT,Courier New" font-weight="bold" font-size="44.0" fill="#000000" transform="matrix(1.00, 0.00, -0.00, -1.00, 286.2, 728.2)">s</text><text xml:space="preserve" font-family="CourierNewPS-BoldMT,Courier New" font-weight="bold" font-size="44.0" fill="#000000" transform="matrix(1.00, 0.00, -0.00, -1.00, 312.6, 728.2)">c</text><text xml:space="preserve" font-family="CourierNewPS-BoldMT,Courier New" font-weight="bold" font-size="44.0" fill="#000000" transform="matrix(1.00, 0.00, -0.00, -1.00, 339.0, 728.2)">r</text><text xml:space="preserve" font-family="CourierNewPS-BoldMT,Courier New" font-weight="bold" font-size="44.0" fill="#000000" transform="matrix(1.00, 0.00, -0.00, -1.00, 365.4, 728.2)">i</text><text xml:space="preserve" font-family="CourierNewPS-BoldMT,Courier New" font-weight="bold" font-size="44.0" fill="#000000" transform="matrix(1.00, 0.00, -0.00, -1.00, 391.8, 728.2)">p</text><text xml:space="preserve" font-family="CourierNewPS-BoldMT,Courier New" font-weight="bold" font-size="44.0" fill="#000000" transform="matrix(1.00, 0.00, -0.00, -1.00, 418.2, 728.2)">t</text><text xml:space="preserve" font-family="CourierNewPS-BoldMT,Courier New" font-weight="bold" font-size="44.0" fill="#000000" transform="matrix(1.00, 0.00, -0.00, -1.00, 444.6, 728.2)">&gt;</text><text xml:space="preserve" font-family="CourierNewPSMT,Courier New" font-size="44.0" fill="#000000" transform="matrix(1.00, 0.00, -0.00, -1.00, 471.0, 728.2)"> </text><text xml:space="preserve" font-family="CourierNewPSMT,Courier New" font-size="44.0" fill="#000000" transform="matrix(1.00, 0.00, -0.00, -1.00, 154.2, 678.2)"> </text><text xml:space="preserve" font-family="CourierNewPSMT,Courier New" font-size="44.0" fill="#000000" transform="matrix(1.00, 0.00, -0.00, -1.00, 180.6, 678.2)"> </text><text xml:space="preserve" font-family="CourierNewPSMT,Courier New" font-size="44.0" fill="#000000" transform="matrix(1.00, 0.00, -0.00, -1.00, 207.0, 678.2)"> </text><text xml:space="preserve" font-family="CourierNewPSMT,Courier New" font-size="44.0" fill="#000000" transform="matrix(1.00, 0.00, -0.00, -1.00, 233.4, 678.2)"> </text><text xml:space="preserve" font-family="CourierNewPSMT,Courier New" font-size="44.0" fill="#000000" transform="matrix(1.00, 0.00, -0.00, -1.00, 259.8, 678.2)"> </text><text xml:space="preserve" font-family="CourierNewPSMT,Courier New" font-size="44.0" fill="#000000" transform="matrix(1.00, 0.00, -0.00, -1.00, 286.2, 678.2)"> </text><text xml:space="preserve" font-family="CourierNewPSMT,Courier New" font-size="44.0" fill="#000000" transform="matrix(1.00, 0.00, -0.00, -1.00, 312.6, 678.2)">w</text><text xml:space="preserve" font-family="CourierNewPSMT,Courier New" font-size="44.0" fill="#000000" transform="matrix(1.00, 0.00, -0.00, -1.00, 339.0, 678.2)">i</text><text xml:space="preserve" font-family="CourierNewPSMT,Courier New" font-size="44.0" fill="#000000" transform="matrix(1.00, 0.00, -0.00, -1.00, 365.4, 678.2)">n</text><text xml:space="preserve" font-family="CourierNewPSMT,Courier New" font-size="44.0" fill="#000000" transform="matrix(1.00, 0.00, -0.00, -1.00, 391.8, 678.2)">d</text><text xml:space="preserve" font-family="CourierNewPSMT,Courier New" font-size="44.0" fill="#000000" transform="matrix(1.00, 0.00, -0.00, -1.00, 418.3, 678.2)">o</text><text xml:space="preserve" font-family="CourierNewPSMT,Courier New" font-size="44.0" fill="#000000" transform="matrix(1.00, 0.00, -0.00, -1.00, 444.7, 678.2)">w</text><text xml:space="preserve" font-family="CourierNewPSMT,Courier New" font-size="44.0" fill="#000000" transform="matrix(1.00, 0.00, -0.00, -1.00, 471.1, 678.2)">.</text><text xml:space="preserve" font-family="CourierNewPSMT,Courier New" font-size="44.0" fill="#000000" transform="matrix(1.00, 0.00, -0.00, -1.00, 497.5, 678.2)">o</text><text xml:space="preserve" font-family="CourierNewPSMT,Courier New" font-size="44.0" fill="#000000" transform="matrix(1.00, 0.00, -0.00, -1.00, 523.9, 678.2)">n</text><text xml:space="preserve" font-family="CourierNewPSMT,Courier New" font-size="44.0" fill="#000000" transform="matrix(1.00, 0.00, -0.00, -1.00, 550.3, 678.2)">l</text><text xml:space="preserve" font-family="CourierNewPSMT,Courier New" font-size="44.0" fill="#000000" transform="matrix(1.00, 0.00, -0.00, -1.00, 576.7, 678.2)">o</text><text xml:space="preserve" font-family="CourierNewPSMT,Courier New" font-size="44.0" fill="#000000" transform="matrix(1.00, 0.00, -0.00, -1.00, 603.1, 678.2)">a</text><text xml:space="preserve" font-family="CourierNewPSMT,Courier New" font-size="44.0" fill="#000000" transform="matrix(1.00, 0.00, -0.00, -1.00, 629.5, 678.2)">d</text><text xml:space="preserve" font-family="CourierNewPSMT,Courier New" font-size="44.0" fill="#000000" transform="matrix(1.00, 0.00, -0.00, -1.00, 655.9, 678.2)"> </text><text xml:space="preserve" font-family="CourierNewPSMT,Courier New" font-size="44.0" fill="#000000" transform="matrix(1.00, 0.00, -0.00, -1.00, 682.3, 678.2)">=</text><text xml:space="preserve" font-family="CourierNewPSMT,Courier New" font-size="44.0" fill="#000000" transform="matrix(1.00, 0.00, -0.00, -1.00, 708.8, 678.2)"> </text><text xml:space="preserve" font-family="CourierNewPS-BoldMT,Courier New" font-weight="bold" font-size="44.0" fill="#000000" transform="matrix(1.00, 0.00, -0.00, -1.00, 735.1, 678.2)">f</text><text xml:space="preserve" font-family="CourierNewPS-BoldMT,Courier New" font-weight="bold" font-size="44.0" fill="#000000" transform="matrix(1.00, 0.00, -0.00, -1.00, 761.5, 678.2)">u</text><text xml:space="preserve" font-family="CourierNewPS-BoldMT,Courier New" font-weight="bold" font-size="44.0" fill="#000000" transform="matrix(1.00, 0.00, -0.00, -1.00, 787.9, 678.2)">n</text><text xml:space="preserve" font-family="CourierNewPS-BoldMT,Courier New" font-weight="bold" font-size="44.0" fill="#000000" transform="matrix(1.00, 0.00, -0.00, -1.00, 814.3, 678.2)">c</text><text xml:space="preserve" font-family="CourierNewPS-BoldMT,Courier New" font-weight="bold" font-size="44.0" fill="#000000" transform="matrix(1.00, 0.00, -0.00, -1.00, 840.7, 678.2)">t</text><text xml:space="preserve" font-family="CourierNewPS-BoldMT,Courier New" font-weight="bold" font-size="44.0" fill="#000000" transform="matrix(1.00, 0.00, -0.00, -1.00, 867.1, 678.2)">i</text><text xml:space="preserve" font-family="CourierNewPS-BoldMT,Courier New" font-weight="bold" font-size="44.0" fill="#000000" transform="matrix(1.00, 0.00, -0.00, -1.00, 893.5, 678.2)">o</text><text xml:space="preserve" font-family="CourierNewPS-BoldMT,Courier New" font-weight="bold" font-size="44.0" fill="#000000" transform="matrix(1.00, 0.00, -0.00, -1.00, 919.9, 678.2)">n</text><text xml:space="preserve" font-family="CourierNewPSMT,Courier New" font-size="44.0" fill="#000000" transform="matrix(1.00, 0.00, -0.00, -1.00, 946.3, 678.2)"> </text><text xml:space="preserve" font-family="CourierNewPSMT,Courier New" font-size="44.0" fill="#000000" transform="matrix(1.00, 0.00, -0.00, -1.00, 972.7, 678.2)">(</text><text xml:space="preserve" font-family="CourierNewPSMT,Courier New" font-size="44.0" fill="#000000" transform="matrix(1.00, 0.00, -0.00, -1.00, 999.1, 678.2)">)</text><text xml:space="preserve" font-family="CourierNewPSMT,Courier New" font-size="44.0" fill="#000000" transform="matrix(1.00, 0.00, -0.00, -1.00, 1025.5, 678.2)"> </text><text xml:space="preserve" font-family="CourierNewPSMT,Courier New" font-size="44.0" fill="#000000" transform="matrix(1.00, 0.00, -0.00, -1.00, 1051.9, 678.2)">{</text><text xml:space="preserve" font-family="CourierNewPSMT,Courier New" font-size="44.0" fill="#000000" transform="matrix(1.00, 0.00, -0.00, -1.00, 1078.3, 678.2)"> </text><text xml:space="preserve" font-family="CourierNewPSMT,Courier New" font-size="44.0" fill="#000000" transform="matrix(1.00, 0.00, -0.00, -1.00, 154.2, 628.2)"> </text><text xml:space="preserve" font-family="CourierNewPSMT,Courier New" font-size="44.0" fill="#000000" transform="matrix(1.00, 0.00, -0.00, -1.00, 180.6, 628.2)"> </text><text xml:space="preserve" font-family="CourierNewPSMT,Courier New" font-size="44.0" fill="#000000" transform="matrix(1.00, 0.00, -0.00, -1.00, 207.0, 628.2)"> </text><text xml:space="preserve" font-family="CourierNewPSMT,Courier New" font-size="44.0" fill="#000000" transform="matrix(1.00, 0.00, -0.00, -1.00, 233.4, 628.2)"> </text><text xml:space="preserve" font-family="CourierNewPSMT,Courier New" font-size="44.0" fill="#000000" transform="matrix(1.00, 0.00, -0.00, -1.00, 259.8, 628.2)"> </text><text xml:space="preserve" font-family="CourierNewPSMT,Courier New" font-size="44.0" fill="#000000" transform="matrix(1.00, 0.00, -0.00, -1.00, 286.2, 628.2)"> </text><text xml:space="preserve" font-family="CourierNewPSMT,Courier New" font-size="44.0" fill="#000000" transform="matrix(1.00, 0.00, -0.00, -1.00, 312.6, 628.2)"> </text><text xml:space="preserve" font-family="CourierNewPSMT,Courier New" font-size="44.0" fill="#000000" transform="matrix(1.00, 0.00, -0.00, -1.00, 339.0, 628.2)"> </text><text xml:space="preserve" font-family="CourierNewPSMT,Courier New" font-size="44.0" fill="#000000" transform="matrix(1.00, 0.00, -0.00, -1.00, 365.4, 628.2)">d</text><text xml:space="preserve" font-family="CourierNewPSMT,Courier New" font-size="44.0" fill="#000000" transform="matrix(1.00, 0.00, -0.00, -1.00, 391.8, 628.2)">o</text><text xml:space="preserve" font-family="CourierNewPSMT,Courier New" font-size="44.0" fill="#000000" transform="matrix(1.00, 0.00, -0.00, -1.00, 418.3, 628.2)">c</text><text xml:space="preserve" font-family="CourierNewPSMT,Courier New" font-size="44.0" fill="#000000" transform="matrix(1.00, 0.00, -0.00, -1.00, 444.7, 628.2)">u</text><text xml:space="preserve" font-family="CourierNewPSMT,Courier New" font-size="44.0" fill="#000000" transform="matrix(1.00, 0.00, -0.00, -1.00, 471.1, 628.2)">m</text><text xml:space="preserve" font-family="CourierNewPSMT,Courier New" font-size="44.0" fill="#000000" transform="matrix(1.00, 0.00, -0.00, -1.00, 497.5, 628.2)">e</text><text xml:space="preserve" font-family="CourierNewPSMT,Courier New" font-size="44.0" fill="#000000" transform="matrix(1.00, 0.00, -0.00, -1.00, 523.9, 628.2)">n</text><text xml:space="preserve" font-family="CourierNewPSMT,Courier New" font-size="44.0" fill="#000000" transform="matrix(1.00, 0.00, -0.00, -1.00, 550.3, 628.2)">t</text><text xml:space="preserve" font-family="CourierNewPSMT,Courier New" font-size="44.0" fill="#000000" transform="matrix(1.00, 0.00, -0.00, -1.00, 576.7, 628.2)">.</text><text xml:space="preserve" font-family="CourierNewPSMT,Courier New" font-size="44.0" fill="#000000" transform="matrix(1.00, 0.00, -0.00, -1.00, 603.1, 628.2)">g</text><text xml:space="preserve" font-family="CourierNewPSMT,Courier New" font-size="44.0" fill="#000000" transform="matrix(1.00, 0.00, -0.00, -1.00, 629.5, 628.2)">e</text><text xml:space="preserve" font-family="CourierNewPSMT,Courier New" font-size="44.0" fill="#000000" transform="matrix(1.00, 0.00, -0.00, -1.00, 655.9, 628.2)">t</text><text xml:space="preserve" font-family="CourierNewPSMT,Courier New" font-size="44.0" fill="#000000" transform="matrix(1.00, 0.00, -0.00, -1.00, 682.3, 628.2)">E</text><text xml:space="preserve" font-family="CourierNewPSMT,Courier New" font-size="44.0" fill="#000000" transform="matrix(1.00, 0.00, -0.00, -1.00, 708.8, 628.2)">l</text><text xml:space="preserve" font-family="CourierNewPSMT,Courier New" font-size="44.0" fill="#000000" transform="matrix(1.00, 0.00, -0.00, -1.00, 735.2, 628.2)">e</text><text xml:space="preserve" font-family="CourierNewPSMT,Courier New" font-size="44.0" fill="#000000" transform="matrix(1.00, 0.00, -0.00, -1.00, 761.6, 628.2)">m</text><text xml:space="preserve" font-family="CourierNewPSMT,Courier New" font-size="44.0" fill="#000000" transform="matrix(1.00, 0.00, -0.00, -1.00, 788.0, 628.2)">e</text><text xml:space="preserve" font-family="CourierNewPSMT,Courier New" font-size="44.0" fill="#000000" transform="matrix(1.00, 0.00, -0.00, -1.00, 814.4, 628.2)">n</text><text xml:space="preserve" font-family="CourierNewPSMT,Courier New" font-size="44.0" fill="#000000" transform="matrix(1.00, 0.00, -0.00, -1.00, 840.8, 628.2)">t</text><text xml:space="preserve" font-family="CourierNewPSMT,Courier New" font-size="44.0" fill="#000000" transform="matrix(1.00, 0.00, -0.00, -1.00, 867.2, 628.2)">B</text><text xml:space="preserve" font-family="CourierNewPSMT,Courier New" font-size="44.0" fill="#000000" transform="matrix(1.00, 0.00, -0.00, -1.00, 893.6, 628.2)">y</text><text xml:space="preserve" font-family="CourierNewPSMT,Courier New" font-size="44.0" fill="#000000" transform="matrix(1.00, 0.00, -0.00, -1.00, 920.0, 628.2)">I</text><text xml:space="preserve" font-family="CourierNewPSMT,Courier New" font-size="44.0" fill="#000000" transform="matrix(1.00, 0.00, -0.00, -1.00, 946.4, 628.2)">d</text><text xml:space="preserve" font-family="CourierNewPSMT,Courier New" font-size="44.0" fill="#000000" transform="matrix(1.00, 0.00, -0.00, -1.00, 972.8, 628.2)">(</text><text xml:space="preserve" font-family="CourierNewPSMT,Courier New" font-size="44.0" fill="#CC1C00" transform="matrix(1.00, 0.00, -0.00, -1.00, 999.1, 628.2)">"</text><text xml:space="preserve" font-family="CourierNewPSMT,Courier New" font-size="44.0" fill="#CC1C00" transform="matrix(1.00, 0.00, -0.00, -1.00, 1025.5, 628.2)">n</text><text xml:space="preserve" font-family="CourierNewPSMT,Courier New" font-size="44.0" fill="#CC1C00" transform="matrix(1.00, 0.00, -0.00, -1.00, 1051.9, 628.2)">a</text><text xml:space="preserve" font-family="CourierNewPSMT,Courier New" font-size="44.0" fill="#CC1C00" transform="matrix(1.00, 0.00, -0.00, -1.00, 1078.3, 628.2)">m</text><text xml:space="preserve" font-family="CourierNewPSMT,Courier New" font-size="44.0" fill="#CC1C00" transform="matrix(1.00, 0.00, -0.00, -1.00, 1104.7, 628.2)">e</text><text xml:space="preserve" font-family="CourierNewPSMT,Courier New" font-size="44.0" fill="#CC1C00" transform="matrix(1.00, 0.00, -0.00, -1.00, 1131.1, 628.2)">"</text><text xml:space="preserve" font-family="CourierNewPSMT,Courier New" font-size="44.0" fill="#000000" transform="matrix(1.00, 0.00, -0.00, -1.00, 1157.5, 628.2)">)</text><text xml:space="preserve" font-family="CourierNewPSMT,Courier New" font-size="44.0" fill="#000000" transform="matrix(1.00, 0.00, -0.00, -1.00, 1183.9, 628.2)">.</text><text xml:space="preserve" font-family="CourierNewPSMT,Courier New" font-size="44.0" fill="#000000" transform="matrix(1.00, 0.00, -0.00, -1.00, 1210.3, 628.2)">i</text><text xml:space="preserve" font-family="CourierNewPSMT,Courier New" font-size="44.0" fill="#000000" transform="matrix(1.00, 0.00, -0.00, -1.00, 1236.8, 628.2)">n</text><text xml:space="preserve" font-family="CourierNewPSMT,Courier New" font-size="44.0" fill="#000000" transform="matrix(1.00, 0.00, -0.00, -1.00, 1263.2, 628.2)">n</text><text xml:space="preserve" font-family="CourierNewPSMT,Courier New" font-size="44.0" fill="#000000" transform="matrix(1.00, 0.00, -0.00, -1.00, 1289.6, 628.2)">e</text><text xml:space="preserve" font-family="CourierNewPSMT,Courier New" font-size="44.0" fill="#000000" transform="matrix(1.00, 0.00, -0.00, -1.00, 1316.0, 628.2)">r</text><text xml:space="preserve" font-family="CourierNewPSMT,Courier New" font-size="44.0" fill="#000000" transform="matrix(1.00, 0.00, -0.00, -1.00, 1342.4, 628.2)">H</text><text xml:space="preserve" font-family="CourierNewPSMT,Courier New" font-size="44.0" fill="#000000" transform="matrix(1.00, 0.00, -0.00, -1.00, 1368.8, 628.2)">T</text><text xml:space="preserve" font-family="CourierNewPSMT,Courier New" font-size="44.0" fill="#000000" transform="matrix(1.00, 0.00, -0.00, -1.00, 1395.2, 628.2)">M</text><text xml:space="preserve" font-family="CourierNewPSMT,Courier New" font-size="44.0" fill="#000000" transform="matrix(1.00, 0.00, -0.00, -1.00, 1421.6, 628.2)">L</text><text xml:space="preserve" font-family="CourierNewPSMT,Courier New" font-size="44.0" fill="#000000" transform="matrix(1.00, 0.00, -0.00, -1.00, 1448.0, 628.2)"> </text><text xml:space="preserve" font-family="CourierNewPSMT,Courier New" font-size="44.0" fill="#000000" transform="matrix(1.00, 0.00, -0.00, -1.00, 1474.4, 628.2)">=</text><text xml:space="preserve" font-family="CourierNewPSMT,Courier New" font-size="44.0" fill="#000000" transform="matrix(1.00, 0.00, -0.00, -1.00, 1500.8, 628.2)"> </text><text xml:space="preserve" font-family="CourierNewPSMT,Courier New" font-size="44.0" fill="#CC1C00" transform="matrix(1.00, 0.00, -0.00, -1.00, 1527.2, 628.2)">"</text><text xml:space="preserve" font-family="CourierNewPSMT,Courier New" font-size="44.0" fill="#CC1C00" transform="matrix(1.00, 0.00, -0.00, -1.00, 1553.6, 628.2)">w</text><text xml:space="preserve" font-family="CourierNewPSMT,Courier New" font-size="44.0" fill="#CC1C00" transform="matrix(1.00, 0.00, -0.00, -1.00, 1580.0, 628.2)">o</text><text xml:space="preserve" font-family="CourierNewPSMT,Courier New" font-size="44.0" fill="#CC1C00" transform="matrix(1.00, 0.00, -0.00, -1.00, 1606.4, 628.2)">r</text><text xml:space="preserve" font-family="CourierNewPSMT,Courier New" font-size="44.0" fill="#CC1C00" transform="matrix(1.00, 0.00, -0.00, -1.00, 1632.8, 628.2)">l</text><text xml:space="preserve" font-family="CourierNewPSMT,Courier New" font-size="44.0" fill="#CC1C00" transform="matrix(1.00, 0.00, -0.00, -1.00, 1659.2, 628.2)">d</text><text xml:space="preserve" font-family="CourierNewPSMT,Courier New" font-size="44.0" fill="#CC1C00" transform="matrix(1.00, 0.00, -0.00, -1.00, 1685.6, 628.2)">"</text><text xml:space="preserve" font-family="CourierNewPSMT,Courier New" font-size="44.0" fill="#000000" transform="matrix(1.00, 0.00, -0.00, -1.00, 1712.0, 628.2)">;</text><text xml:space="preserve" font-family="CourierNewPSMT,Courier New" font-size="44.0" fill="#000000" transform="matrix(1.00, 0.00, -0.00, -1.00, 1738.4, 628.2)"> </text><text xml:space="preserve" font-family="CourierNewPSMT,Courier New" font-size="44.0" fill="#000000" transform="matrix(1.00, 0.00, -0.00, -1.00, 154.2, 578.2)"> </text><text xml:space="preserve" font-family="CourierNewPSMT,Courier New" font-size="44.0" fill="#000000" transform="matrix(1.00, 0.00, -0.00, -1.00, 180.6, 578.2)"> </text><text xml:space="preserve" font-family="CourierNewPSMT,Courier New" font-size="44.0" fill="#000000" transform="matrix(1.00, 0.00, -0.00, -1.00, 207.0, 578.2)"> </text><text xml:space="preserve" font-family="CourierNewPSMT,Courier New" font-size="44.0" fill="#000000" transform="matrix(1.00, 0.00, -0.00, -1.00, 233.4, 578.2)"> </text><text xml:space="preserve" font-family="CourierNewPSMT,Courier New" font-size="44.0" fill="#000000" transform="matrix(1.00, 0.00, -0.00, -1.00, 259.8, 578.2)"> </text><text xml:space="preserve" font-family="CourierNewPSMT,Courier New" font-size="44.0" fill="#000000" transform="matrix(1.00, 0.00, -0.00, -1.00, 286.2, 578.2)"> </text><text xml:space="preserve" font-family="CourierNewPSMT,Courier New" font-size="44.0" fill="#000000" transform="matrix(1.00, 0.00, -0.00, -1.00, 312.6, 578.2)">}</text><text xml:space="preserve" font-family="CourierNewPSMT,Courier New" font-size="44.0" fill="#000000" transform="matrix(1.00, 0.00, -0.00, -1.00, 339.0, 578.2)">;</text><text xml:space="preserve" font-family="CourierNewPSMT,Courier New" font-size="44.0" fill="#000000" transform="matrix(1.00, 0.00, -0.00, -1.00, 365.4, 578.2)"> </text><text xml:space="preserve" font-family="CourierNewPSMT,Courier New" font-size="44.0" fill="#000000" transform="matrix(1.00, 0.00, -0.00, -1.00, 154.2, 528.2)"> </text><text xml:space="preserve" font-family="CourierNewPSMT,Courier New" font-size="44.0" fill="#000000" transform="matrix(1.00, 0.00, -0.00, -1.00, 180.6, 528.2)"> </text><text xml:space="preserve" font-family="CourierNewPSMT,Courier New" font-size="44.0" fill="#000000" transform="matrix(1.00, 0.00, -0.00, -1.00, 207.0, 528.2)"> </text><text xml:space="preserve" font-family="CourierNewPSMT,Courier New" font-size="44.0" fill="#000000" transform="matrix(1.00, 0.00, -0.00, -1.00, 233.4, 528.2)"> </text><text xml:space="preserve" font-family="CourierNewPS-BoldMT,Courier New" font-weight="bold" font-size="44.0" fill="#000000" transform="matrix(1.00, 0.00, -0.00, -1.00, 259.8, 528.2)">&lt;</text><text xml:space="preserve" font-family="CourierNewPS-BoldMT,Courier New" font-weight="bold" font-size="44.0" fill="#000000" transform="matrix(1.00, 0.00, -0.00, -1.00, 286.2, 528.2)">/</text><text xml:space="preserve" font-family="CourierNewPS-BoldMT,Courier New" font-weight="bold" font-size="44.0" fill="#000000" transform="matrix(1.00, 0.00, -0.00, -1.00, 312.6, 528.2)">s</text><text xml:space="preserve" font-family="CourierNewPS-BoldMT,Courier New" font-weight="bold" font-size="44.0" fill="#000000" transform="matrix(1.00, 0.00, -0.00, -1.00, 339.0, 528.2)">c</text><text xml:space="preserve" font-family="CourierNewPS-BoldMT,Courier New" font-weight="bold" font-size="44.0" fill="#000000" transform="matrix(1.00, 0.00, -0.00, -1.00, 365.4, 528.2)">r</text><text xml:space="preserve" font-family="CourierNewPS-BoldMT,Courier New" font-weight="bold" font-size="44.0" fill="#000000" transform="matrix(1.00, 0.00, -0.00, -1.00, 391.8, 528.2)">i</text><text xml:space="preserve" font-family="CourierNewPS-BoldMT,Courier New" font-weight="bold" font-size="44.0" fill="#000000" transform="matrix(1.00, 0.00, -0.00, -1.00, 418.2, 528.2)">p</text><text xml:space="preserve" font-family="CourierNewPS-BoldMT,Courier New" font-weight="bold" font-size="44.0" fill="#000000" transform="matrix(1.00, 0.00, -0.00, -1.00, 444.6, 528.2)">t</text><text xml:space="preserve" font-family="CourierNewPS-BoldMT,Courier New" font-weight="bold" font-size="44.0" fill="#000000" transform="matrix(1.00, 0.00, -0.00, -1.00, 471.1, 528.2)">&gt;</text><text xml:space="preserve" font-family="CourierNewPSMT,Courier New" font-size="44.0" fill="#000000" transform="matrix(1.00, 0.00, -0.00, -1.00, 497.4, 528.2)"> </text><text xml:space="preserve" font-family="CourierNewPSMT,Courier New" font-size="44.0" fill="#000000" transform="matrix(1.00, 0.00, -0.00, -1.00, 154.2, 478.2)"> </text><text xml:space="preserve" font-family="CourierNewPSMT,Courier New" font-size="44.0" fill="#000000" transform="matrix(1.00, 0.00, -0.00, -1.00, 180.6, 478.2)"> </text><text xml:space="preserve" font-family="CourierNewPS-BoldMT,Courier New" font-weight="bold" font-size="44.0" fill="#000000" transform="matrix(1.00, 0.00, -0.00, -1.00, 207.0, 478.2)">&lt;</text><text xml:space="preserve" font-family="CourierNewPS-BoldMT,Courier New" font-weight="bold" font-size="44.0" fill="#000000" transform="matrix(1.00, 0.00, -0.00, -1.00, 233.4, 478.2)">/</text><text xml:space="preserve" font-family="CourierNewPS-BoldMT,Courier New" font-weight="bold" font-size="44.0" fill="#000000" transform="matrix(1.00, 0.00, -0.00, -1.00, 259.8, 478.2)">h</text><text xml:space="preserve" font-family="CourierNewPS-BoldMT,Courier New" font-weight="bold" font-size="44.0" fill="#000000" transform="matrix(1.00, 0.00, -0.00, -1.00, 286.2, 478.2)">e</text><text xml:space="preserve" font-family="CourierNewPS-BoldMT,Courier New" font-weight="bold" font-size="44.0" fill="#000000" transform="matrix(1.00, 0.00, -0.00, -1.00, 312.6, 478.2)">a</text><text xml:space="preserve" font-family="CourierNewPS-BoldMT,Courier New" font-weight="bold" font-size="44.0" fill="#000000" transform="matrix(1.00, 0.00, -0.00, -1.00, 339.0, 478.2)">d</text><text xml:space="preserve" font-family="CourierNewPS-BoldMT,Courier New" font-weight="bold" font-size="44.0" fill="#000000" transform="matrix(1.00, 0.00, -0.00, -1.00, 365.4, 478.2)">&gt;</text><text xml:space="preserve" font-family="CourierNewPSMT,Courier New" font-size="44.0" fill="#000000" transform="matrix(1.00, 0.00, -0.00, -1.00, 391.8, 478.2)"> </text><text xml:space="preserve" font-family="CourierNewPSMT,Courier New" font-size="44.0" fill="#000000" transform="matrix(1.00, 0.00, -0.00, -1.00, 154.2, 428.2)"> </text><text xml:space="preserve" font-family="CourierNewPSMT,Courier New" font-size="44.0" fill="#000000" transform="matrix(1.00, 0.00, -0.00, -1.00, 180.6, 428.2)"> </text><text xml:space="preserve" font-family="CourierNewPS-BoldMT,Courier New" font-weight="bold" font-size="44.0" fill="#000000" transform="matrix(1.00, 0.00, -0.00, -1.00, 207.0, 428.2)">&lt;</text><text xml:space="preserve" font-family="CourierNewPS-BoldMT,Courier New" font-weight="bold" font-size="44.0" fill="#000000" transform="matrix(1.00, 0.00, -0.00, -1.00, 233.4, 428.2)">b</text><text xml:space="preserve" font-family="CourierNewPS-BoldMT,Courier New" font-weight="bold" font-size="44.0" fill="#000000" transform="matrix(1.00, 0.00, -0.00, -1.00, 259.8, 428.2)">o</text><text xml:space="preserve" font-family="CourierNewPS-BoldMT,Courier New" font-weight="bold" font-size="44.0" fill="#000000" transform="matrix(1.00, 0.00, -0.00, -1.00, 286.2, 428.2)">d</text><text xml:space="preserve" font-family="CourierNewPS-BoldMT,Courier New" font-weight="bold" font-size="44.0" fill="#000000" transform="matrix(1.00, 0.00, -0.00, -1.00, 312.6, 428.2)">y</text><text xml:space="preserve" font-family="CourierNewPS-BoldMT,Courier New" font-weight="bold" font-size="44.0" fill="#000000" transform="matrix(1.00, 0.00, -0.00, -1.00, 339.0, 428.2)">&gt;</text><text xml:space="preserve" font-family="CourierNewPSMT,Courier New" font-size="44.0" fill="#000000" transform="matrix(1.00, 0.00, -0.00, -1.00, 365.4, 428.2)"> </text><text xml:space="preserve" font-family="CourierNewPSMT,Courier New" font-size="44.0" fill="#000000" transform="matrix(1.00, 0.00, -0.00, -1.00, 154.2, 378.2)"> </text><text xml:space="preserve" font-family="CourierNewPSMT,Courier New" font-size="44.0" fill="#000000" transform="matrix(1.00, 0.00, -0.00, -1.00, 180.6, 378.2)"> </text><text xml:space="preserve" font-family="CourierNewPSMT,Courier New" font-size="44.0" fill="#000000" transform="matrix(1.00, 0.00, -0.00, -1.00, 207.0, 378.2)"> </text><text xml:space="preserve" font-family="CourierNewPSMT,Courier New" font-size="44.0" fill="#000000" transform="matrix(1.00, 0.00, -0.00, -1.00, 233.4, 378.2)"> </text><text xml:space="preserve" font-family="CourierNewPS-BoldMT,Courier New" font-weight="bold" font-size="44.0" fill="#000000" transform="matrix(1.00, 0.00, -0.00, -1.00, 259.8, 378.2)">&lt;</text><text xml:space="preserve" font-family="CourierNewPS-BoldMT,Courier New" font-weight="bold" font-size="44.0" fill="#000000" transform="matrix(1.00, 0.00, -0.00, -1.00, 286.2, 378.2)">h</text><text xml:space="preserve" font-family="CourierNewPS-BoldMT,Courier New" font-weight="bold" font-size="44.0" fill="#000000" transform="matrix(1.00, 0.00, -0.00, -1.00, 312.6, 378.2)">1</text><text xml:space="preserve" font-family="CourierNewPS-BoldMT,Courier New" font-weight="bold" font-size="44.0" fill="#000000" transform="matrix(1.00, 0.00, -0.00, -1.00, 339.0, 378.2)">&gt;</text><text xml:space="preserve" font-family="CourierNewPSMT,Courier New" font-size="44.0" fill="#000000" transform="matrix(1.00, 0.00, -0.00, -1.00, 365.4, 378.2)">H</text><text xml:space="preserve" font-family="CourierNewPSMT,Courier New" font-size="44.0" fill="#000000" transform="matrix(1.00, 0.00, -0.00, -1.00, 391.8, 378.2)">e</text><text xml:space="preserve" font-family="CourierNewPSMT,Courier New" font-size="44.0" fill="#000000" transform="matrix(1.00, 0.00, -0.00, -1.00, 418.2, 378.2)">l</text><text xml:space="preserve" font-family="CourierNewPSMT,Courier New" font-size="44.0" fill="#000000" transform="matrix(1.00, 0.00, -0.00, -1.00, 444.6, 378.2)">l</text><text xml:space="preserve" font-family="CourierNewPSMT,Courier New" font-size="44.0" fill="#000000" transform="matrix(1.00, 0.00, -0.00, -1.00, 471.0, 378.2)">o</text><text xml:space="preserve" font-family="CourierNewPSMT,Courier New" font-size="44.0" fill="#000000" transform="matrix(1.00, 0.00, -0.00, -1.00, 497.4, 378.2)"> </text><text xml:space="preserve" font-family="CourierNewPS-BoldMT,Courier New" font-weight="bold" font-size="44.0" fill="#000000" transform="matrix(1.00, 0.00, -0.00, -1.00, 523.8, 378.2)">&lt;</text><text xml:space="preserve" font-family="CourierNewPS-BoldMT,Courier New" font-weight="bold" font-size="44.0" fill="#000000" transform="matrix(1.00, 0.00, -0.00, -1.00, 550.2, 378.2)">s</text><text xml:space="preserve" font-family="CourierNewPS-BoldMT,Courier New" font-weight="bold" font-size="44.0" fill="#000000" transform="matrix(1.00, 0.00, -0.00, -1.00, 576.6, 378.2)">p</text><text xml:space="preserve" font-family="CourierNewPS-BoldMT,Courier New" font-weight="bold" font-size="44.0" fill="#000000" transform="matrix(1.00, 0.00, -0.00, -1.00, 603.1, 378.2)">a</text><text xml:space="preserve" font-family="CourierNewPS-BoldMT,Courier New" font-weight="bold" font-size="44.0" fill="#000000" transform="matrix(1.00, 0.00, -0.00, -1.00, 629.5, 378.2)">n</text><text xml:space="preserve" font-family="CourierNewPSMT,Courier New" font-size="44.0" fill="#000000" transform="matrix(1.00, 0.00, -0.00, -1.00, 655.9, 378.2)"> </text><text xml:space="preserve" font-family="CourierNewPSMT,Courier New" font-size="44.0" fill="#006DBC" transform="matrix(1.00, 0.00, -0.00, -1.00, 682.3, 378.2)">i</text><text xml:space="preserve" font-family="CourierNewPSMT,Courier New" font-size="44.0" fill="#006DBC" transform="matrix(1.00, 0.00, -0.00, -1.00, 708.7, 378.2)">d</text><text xml:space="preserve" font-family="CourierNewPSMT,Courier New" font-size="44.0" fill="#000000" transform="matrix(1.00, 0.00, -0.00, -1.00, 735.1, 378.2)">=</text><text xml:space="preserve" font-family="CourierNewPSMT,Courier New" font-size="44.0" fill="#CC1C00" transform="matrix(1.00, 0.00, -0.00, -1.00, 761.5, 378.2)">"</text><text xml:space="preserve" font-family="CourierNewPSMT,Courier New" font-size="44.0" fill="#CC1C00" transform="matrix(1.00, 0.00, -0.00, -1.00, 787.9, 378.2)">n</text><text xml:space="preserve" font-family="CourierNewPSMT,Courier New" font-size="44.0" fill="#CC1C00" transform="matrix(1.00, 0.00, -0.00, -1.00, 814.3, 378.2)">a</text><text xml:space="preserve" font-family="CourierNewPSMT,Courier New" font-size="44.0" fill="#CC1C00" transform="matrix(1.00, 0.00, -0.00, -1.00, 840.7, 378.2)">m</text><text xml:space="preserve" font-family="CourierNewPSMT,Courier New" font-size="44.0" fill="#CC1C00" transform="matrix(1.00, 0.00, -0.00, -1.00, 867.1, 378.2)">e</text><text xml:space="preserve" font-family="CourierNewPSMT,Courier New" font-size="44.0" fill="#CC1C00" transform="matrix(1.00, 0.00, -0.00, -1.00, 893.5, 378.2)">"</text><text xml:space="preserve" font-family="CourierNewPS-BoldMT,Courier New" font-weight="bold" font-size="44.0" fill="#000000" transform="matrix(1.00, 0.00, -0.00, -1.00, 919.9, 378.2)">&gt;</text><text xml:space="preserve" font-family="CourierNewPS-BoldMT,Courier New" font-weight="bold" font-size="44.0" fill="#000000" transform="matrix(1.00, 0.00, -0.00, -1.00, 946.3, 378.2)">&lt;</text><text xml:space="preserve" font-family="CourierNewPS-BoldMT,Courier New" font-weight="bold" font-size="44.0" fill="#000000" transform="matrix(1.00, 0.00, -0.00, -1.00, 972.7, 378.2)">/</text><text xml:space="preserve" font-family="CourierNewPS-BoldMT,Courier New" font-weight="bold" font-size="44.0" fill="#000000" transform="matrix(1.00, 0.00, -0.00, -1.00, 999.1, 378.2)">s</text><text xml:space="preserve" font-family="CourierNewPS-BoldMT,Courier New" font-weight="bold" font-size="44.0" fill="#000000" transform="matrix(1.00, 0.00, -0.00, -1.00, 1025.5, 378.2)">p</text><text xml:space="preserve" font-family="CourierNewPS-BoldMT,Courier New" font-weight="bold" font-size="44.0" fill="#000000" transform="matrix(1.00, 0.00, -0.00, -1.00, 1051.9, 378.2)">a</text><text xml:space="preserve" font-family="CourierNewPS-BoldMT,Courier New" font-weight="bold" font-size="44.0" fill="#000000" transform="matrix(1.00, 0.00, -0.00, -1.00, 1078.3, 378.2)">n</text><text xml:space="preserve" font-family="CourierNewPS-BoldMT,Courier New" font-weight="bold" font-size="44.0" fill="#000000" transform="matrix(1.00, 0.00, -0.00, -1.00, 1104.8, 378.2)">&gt;</text><text xml:space="preserve" font-family="CourierNewPSMT,Courier New" font-size="44.0" fill="#000000" transform="matrix(1.00, 0.00, -0.00, -1.00, 1131.1, 378.2)">!</text><text xml:space="preserve" font-family="CourierNewPS-BoldMT,Courier New" font-weight="bold" font-size="44.0" fill="#000000" transform="matrix(1.00, 0.00, -0.00, -1.00, 1157.5, 378.2)">&lt;</text><text xml:space="preserve" font-family="CourierNewPS-BoldMT,Courier New" font-weight="bold" font-size="44.0" fill="#000000" transform="matrix(1.00, 0.00, -0.00, -1.00, 1183.9, 378.2)">/</text><text xml:space="preserve" font-family="CourierNewPS-BoldMT,Courier New" font-weight="bold" font-size="44.0" fill="#000000" transform="matrix(1.00, 0.00, -0.00, -1.00, 1210.3, 378.2)">h</text><text xml:space="preserve" font-family="CourierNewPS-BoldMT,Courier New" font-weight="bold" font-size="44.0" fill="#000000" transform="matrix(1.00, 0.00, -0.00, -1.00, 1236.8, 378.2)">1</text><text xml:space="preserve" font-family="CourierNewPS-BoldMT,Courier New" font-weight="bold" font-size="44.0" fill="#000000" transform="matrix(1.00, 0.00, -0.00, -1.00, 1263.2, 378.2)">&gt;</text><text xml:space="preserve" font-family="CourierNewPSMT,Courier New" font-size="44.0" fill="#000000" transform="matrix(1.00, 0.00, -0.00, -1.00, 1289.6, 378.2)"> </text><text xml:space="preserve" font-family="CourierNewPSMT,Courier New" font-size="44.0" fill="#000000" transform="matrix(1.00, 0.00, -0.00, -1.00, 154.2, 328.2)"> </text><text xml:space="preserve" font-family="CourierNewPSMT,Courier New" font-size="44.0" fill="#000000" transform="matrix(1.00, 0.00, -0.00, -1.00, 180.6, 328.2)"> </text><text xml:space="preserve" font-family="CourierNewPS-BoldMT,Courier New" font-weight="bold" font-size="44.0" fill="#000000" transform="matrix(1.00, 0.00, -0.00, -1.00, 207.0, 328.2)">&lt;</text><text xml:space="preserve" font-family="CourierNewPS-BoldMT,Courier New" font-weight="bold" font-size="44.0" fill="#000000" transform="matrix(1.00, 0.00, -0.00, -1.00, 233.4, 328.2)">/</text><text xml:space="preserve" font-family="CourierNewPS-BoldMT,Courier New" font-weight="bold" font-size="44.0" fill="#000000" transform="matrix(1.00, 0.00, -0.00, -1.00, 259.8, 328.2)">b</text><text xml:space="preserve" font-family="CourierNewPS-BoldMT,Courier New" font-weight="bold" font-size="44.0" fill="#000000" transform="matrix(1.00, 0.00, -0.00, -1.00, 286.2, 328.2)">o</text><text xml:space="preserve" font-family="CourierNewPS-BoldMT,Courier New" font-weight="bold" font-size="44.0" fill="#000000" transform="matrix(1.00, 0.00, -0.00, -1.00, 312.6, 328.2)">d</text><text xml:space="preserve" font-family="CourierNewPS-BoldMT,Courier New" font-weight="bold" font-size="44.0" fill="#000000" transform="matrix(1.00, 0.00, -0.00, -1.00, 339.0, 328.2)">y</text><text xml:space="preserve" font-family="CourierNewPS-BoldMT,Courier New" font-weight="bold" font-size="44.0" fill="#000000" transform="matrix(1.00, 0.00, -0.00, -1.00, 365.4, 328.2)">&gt;</text><text xml:space="preserve" font-family="CourierNewPSMT,Courier New" font-size="44.0" fill="#000000" transform="matrix(1.00, 0.00, -0.00, -1.00, 391.8, 328.2)"> </text><text xml:space="preserve" font-family="CourierNewPS-BoldMT,Courier New" font-weight="bold" font-size="44.0" fill="#000000" transform="matrix(1.00, 0.00, -0.00, -1.00, 154.2, 278.2)">&lt;</text><text xml:space="preserve" font-family="CourierNewPS-BoldMT,Courier New" font-weight="bold" font-size="44.0" fill="#000000" transform="matrix(1.00, 0.00, -0.00, -1.00, 180.6, 278.2)">/</text><text xml:space="preserve" font-family="CourierNewPS-BoldMT,Courier New" font-weight="bold" font-size="44.0" fill="#000000" transform="matrix(1.00, 0.00, -0.00, -1.00, 207.0, 278.2)">h</text><text xml:space="preserve" font-family="CourierNewPS-BoldMT,Courier New" font-weight="bold" font-size="44.0" fill="#000000" transform="matrix(1.00, 0.00, -0.00, -1.00, 233.4, 278.2)">t</text><text xml:space="preserve" font-family="CourierNewPS-BoldMT,Courier New" font-weight="bold" font-size="44.0" fill="#000000" transform="matrix(1.00, 0.00, -0.00, -1.00, 259.8, 278.2)">m</text><text xml:space="preserve" font-family="CourierNewPS-BoldMT,Courier New" font-weight="bold" font-size="44.0" fill="#000000" transform="matrix(1.00, 0.00, -0.00, -1.00, 286.2, 278.2)">l</text><text xml:space="preserve" font-family="CourierNewPS-BoldMT,Courier New" font-weight="bold" font-size="44.0" fill="#000000" transform="matrix(1.00, 0.00, -0.00, -1.00, 312.6, 278.2)">&gt;</text><text xml:space="preserve" font-family="CourierNewPSMT,Courier New" font-size="44.0" fill="#000000" transform="matrix(1.00, 0.00, -0.00, -1.00, 339.0, 278.2)"> </text></g></svg>