<?xml version="1.0" encoding="UTF-8" standalone="no"?><svg xmlns="http://www.w3.org/2000/svg" xmlns:xlink="http://www.w3.org/1999/xlink" clip-rule="evenodd" stroke-miterlimit="10" viewBox="0 0 1920 1080"><desc>SVG generated by Keynote</desc><defs></defs><g transform="matrix(1.00, 0.00, -0.00, -1.00, 0.0, 1080.0)"><path d="M 0.0 1080.0 L 1920.0 1080.0 L 1920.0 0.0 L 0.0 0.0 Z M 0.0 1080.0 " fill="#FFFFFF"></path><text xml:space="preserve" font-family="AlfaSlabOne-Regular,Alfa Slab One" font-size="120.0" fill="#00D5FC" transform="matrix(1.00, 0.00, -0.00, -1.00, 223.7, 775.3)">a</text><text xml:space="preserve" font-family="AlfaSlabOne-Regular,Alfa Slab One" font-size="120.0" fill="#00D5FC" transform="matrix(1.00, 0.00, -0.00, -1.00, 302.0, 775.3)">m</text><text xml:space="preserve" font-family="AlfaSlabOne-Regular,Alfa Slab One" font-size="120.0" fill="#00D5FC" transform="matrix(1.00, 0.00, -0.00, -1.00, 426.5, 775.3)">d</text><text xml:space="preserve" font-family="AlfaSlabOne-Regular,Alfa Slab One" font-size="120.0" fill="#00D5FC" transform="matrix(1.00, 0.00, -0.00, -1.00, 505.3, 775.3)">?</text><text xml:space="preserve" font-family="AlfaSlabOne-Regular,Alfa Slab One" font-size="120.0" fill="#00D5FC" transform="matrix(1.00, 0.00, -0.00, -1.00, 991.2, 630.6)">c</text><text xml:space="preserve" font-family="AlfaSlabOne-Regular,Alfa Slab One" font-size="120.0" fill="#00D5FC" transform="matrix(1.00, 0.00, -0.00, -1.00, 1057.7, 630.6)">o</text><text xml:space="preserve" font-family="AlfaSlabOne-Regular,Alfa Slab One" font-size="120.0" fill="#00D5FC" transform="matrix(1.00, 0.00, -0.00, -1.00, 1132.1, 630.6)">m</text><text xml:space="preserve" font-family="AlfaSlabOne-Regular,Alfa Slab One" font-size="120.0" fill="#00D5FC" transform="matrix(1.00, 0.00, -0.00, -1.00, 1256.7, 630.6)">m</text><text xml:space="preserve" font-family="AlfaSlabOne-Regular,Alfa Slab One" font-size="120.0" fill="#00D5FC" transform="matrix(1.00, 0.00, -0.00, -1.00, 1381.2, 630.6)">o</text><text xml:space="preserve" font-family="AlfaSlabOne-Regular,Alfa Slab One" font-size="120.0" fill="#00D5FC" transform="matrix(1.00, 0.00, -0.00, -1.00, 1454.4, 630.6)">n</text><text xml:space="preserve" font-family="AlfaSlabOne-Regular,Alfa Slab One" font-size="120.0" fill="#00D5FC" transform="matrix(1.00, 0.00, -0.00, -1.00, 1535.8, 630.6)">j</text><text xml:space="preserve" font-family="AlfaSlabOne-Regular,Alfa Slab One" font-size="120.0" fill="#00D5FC" transform="matrix(1.00, 0.00, -0.00, -1.00, 1575.0, 630.6)">s</text><text xml:space="preserve" font-family="AlfaSlabOne-Regular,Alfa Slab One" font-size="120.0" fill="#00D5FC" transform="matrix(1.00, 0.00, -0.00, -1.00, 1629.8, 630.6)">?</text><text xml:space="preserve" font-family="AlfaSlabOne-Regular,Alfa Slab One" font-size="120.0" fill="#00D5FC" transform="matrix(1.00, 0.00, -0.00, -1.00, 221.3, 268.6)">e</text><text xml:space="preserve" font-family="AlfaSlabOne-Regular,Alfa Slab One" font-size="120.0" fill="#00D5FC" transform="matrix(1.00, 0.00, -0.00, -1.00, 291.9, 268.6)">s</text><text xml:space="preserve" font-family="AlfaSlabOne-Regular,Alfa Slab One" font-size="120.0" fill="#00D5FC" transform="matrix(1.00, 0.00, -0.00, -1.00, 355.9, 268.6)">6</text><text xml:space="preserve" font-family="AlfaSlabOne-Regular,Alfa Slab One" font-size="120.0" fill="#00D5FC" transform="matrix(1.00, 0.00, -0.00, -1.00, 439.1, 268.6)">?</text><text xml:space="preserve" font-family="AlfaSlabOne-Regular,Alfa Slab One" font-size="120.0" fill="#00D5FC" transform="matrix(1.00, 0.00, -0.00, -1.00, 512.8, 268.6)"> </text><text xml:space="preserve" font-family="AlfaSlabOne-Regular,Alfa Slab One" font-size="120.0" fill="#00D5FC" transform="matrix(1.00, 0.00, -0.00, -1.00, 548.8, 268.6)">(</text><text xml:space="preserve" font-family="AlfaSlabOne-Regular,Alfa Slab One" font-size="120.0" fill="#00D5FC" transform="matrix(1.00, 0.00, -0.00, -1.00, 590.8, 268.6)">a</text><text xml:space="preserve" font-family="AlfaSlabOne-Regular,Alfa Slab One" font-size="120.0" fill="#00D5FC" transform="matrix(1.00, 0.00, -0.00, -1.00, 669.0, 268.6)">k</text><text xml:space="preserve" font-family="AlfaSlabOne-Regular,Alfa Slab One" font-size="120.0" fill="#00D5FC" transform="matrix(1.00, 0.00, -0.00, -1.00, 749.9, 268.6)">a</text><text xml:space="preserve" font-family="AlfaSlabOne-Regular,Alfa Slab One" font-size="120.0" fill="#00D5FC" transform="matrix(1.00, 0.00, -0.00, -1.00, 828.1, 268.6)"> </text><text xml:space="preserve" font-family="AlfaSlabOne-Regular,Alfa Slab One" font-size="120.0" fill="#00D5FC" transform="matrix(1.00, 0.00, -0.00, -1.00, 864.1, 268.6)">h</text><text xml:space="preserve" font-family="AlfaSlabOne-Regular,Alfa Slab One" font-size="120.0" fill="#00D5FC" transform="matrix(1.00, 0.00, -0.00, -1.00, 947.2, 268.6)">a</text><text xml:space="preserve" font-family="AlfaSlabOne-Regular,Alfa Slab One" font-size="120.0" fill="#00D5FC" transform="matrix(1.00, 0.00, -0.00, -1.00, 1025.4, 268.6)">r</text><text xml:space="preserve" font-family="AlfaSlabOne-Regular,Alfa Slab One" font-size="120.0" fill="#00D5FC" transform="matrix(1.00, 0.00, -0.00, -1.00, 1087.9, 268.6)">m</text><text xml:space="preserve" font-family="AlfaSlabOne-Regular,Alfa Slab One" font-size="120.0" fill="#00D5FC" transform="matrix(1.00, 0.00, -0.00, -1.00, 1212.5, 268.6)">o</text><text xml:space="preserve" font-family="AlfaSlabOne-Regular,Alfa Slab One" font-size="120.0" fill="#00D5FC" transform="matrix(1.00, 0.00, -0.00, -1.00, 1285.7, 268.6)">n</text><text xml:space="preserve" font-family="AlfaSlabOne-Regular,Alfa Slab One" font-size="120.0" fill="#00D5FC" transform="matrix(1.00, 0.00, -0.00, -1.00, 1368.3, 268.6)">y</text><text xml:space="preserve" font-family="AlfaSlabOne-Regular,Alfa Slab One" font-size="120.0" fill="#00D5FC" transform="matrix(1.00, 0.00, -0.00, -1.00, 1446.0, 268.6)">)</text></g></svg>